<?xml version="1.0" standalone="no"?>
<!DOCTYPE svg PUBLIC "-//W3C//DTD SVG 20010904//EN"
 "http://www.w3.org/TR/2001/REC-SVG-20010904/DTD/svg10.dtd">
<svg version="1.0" xmlns="http://www.w3.org/2000/svg"
 width="412.000000pt" height="150.000000pt" viewBox="0 0 412.000000 150.000000"
 preserveAspectRatio="xMidYMid meet">

<g transform="translate(0.000000,150.000000) scale(0.100000,-0.100000)"
fill="#000000" stroke="none">
<path d="M3675 1487 c-2 -7 -5 -53 -7 -104 -2 -50 -6 -94 -9 -97 -3 -3 -102
-13 -220 -21 -248 -17 -303 -27 -381 -66 -42 -21 -72 -29 -110 -29 l-53 0
-102 102 -103 102 -38 -37 c-21 -20 -41 -37 -44 -37 -3 0 -8 36 -9 79 -2 44
-7 82 -11 86 -9 10 -438 -17 -438 -27 0 -4 -15 -8 -32 -8 -35 0 -111 -31 -122
-49 -12 -19 -26 -12 -26 13 0 14 -4 27 -8 30 -7 4 -433 -23 -438 -28 -1 0 2
-46 6 -101 5 -55 6 -103 3 -107 -2 -5 -26 -8 -54 -8 -45 0 -49 -2 -49 -23 0
-24 0 -24 -172 -30 -95 -4 -209 -7 -253 -7 l-80 0 -28 45 c-54 86 -167 151
-279 161 -55 5 -213 -1 -526 -23 l-92 -6 5 -46 c3 -25 10 -127 16 -226 5 -99
17 -283 25 -410 8 -126 17 -290 21 -364 l6 -134 101 7 c56 3 184 11 286 17
267 15 350 37 443 119 l45 40 52 -35 c137 -92 354 -100 537 -20 30 14 57 25
59 25 2 0 4 -11 4 -25 0 -30 2 -30 214 -15 205 14 574 38 696 45 164 9 160 8
160 66 l0 49 95 -70 c52 -38 99 -70 103 -70 5 0 34 35 65 78 l56 79 69 -34
c77 -39 183 -53 262 -34 24 5 47 6 50 1 3 -5 73 -4 157 2 l152 11 62 -28 c52
-23 71 -27 116 -22 105 11 183 81 202 181 6 28 17 200 26 381 9 182 20 391 25
465 4 74 6 137 4 139 -1 2 -79 7 -171 12 -92 5 -190 11 -216 13 -32 4 -49 1
-52 -7z m288 -192 c-1 -22 -7 -143 -13 -270 -6 -126 -13 -254 -16 -282 l-5
-53 -62 0 c-34 0 -68 4 -76 9 -13 8 -13 50 2 321 9 171 19 314 21 318 2 4 37
5 78 2 l73 -5 -2 -40z m-1500 -47 c4 -40 9 -121 13 -180 4 -60 8 -108 10 -108
3 0 50 47 106 105 l101 105 53 -57 53 -58 -112 -112 c-61 -62 -109 -114 -107
-116 3 -3 82 -60 175 -128 94 -67 172 -124 174 -125 5 -4 -83 -123 -91 -124
-4 0 -80 54 -170 119 -89 66 -164 119 -165 117 -2 -1 2 -60 7 -131 6 -70 9
-129 8 -130 -2 -2 -38 -6 -80 -10 l-78 -7 0 33 c0 19 -7 126 -15 239 -7 113
-19 282 -25 375 -5 94 -13 189 -16 212 -5 39 -4 42 23 46 15 2 51 5 79 6 l51
1 6 -72z m-294 27 c33 -16 56 -64 46 -95 -20 -62 -106 -82 -144 -34 -38 49
-19 116 39 137 24 9 29 8 59 -8z m-335 -67 c3 -35 7 -81 9 -103 l2 -40 56 3
56 3 6 -62 c4 -33 4 -65 1 -70 -3 -5 -29 -9 -59 -9 l-54 0 5 -62 c7 -87 32
-483 30 -485 -1 -1 -35 -3 -76 -5 l-75 -3 -17 245 c-9 135 -17 258 -17 274
l-1 28 -54 -6 -54 -7 -4 63 c-3 35 -3 66 -1 71 2 4 27 7 54 7 l50 0 -7 110 -7
110 76 0 75 0 6 -62z m-1186 -33 c92 -28 161 -111 162 -196 0 -48 -45 -134
-86 -166 l-35 -26 49 -28 c183 -104 189 -339 12 -429 -85 -43 -240 -50 -339
-15 -54 19 -51 19 -51 -9 0 -22 -5 -24 -71 -30 -39 -4 -73 -6 -75 -4 -7 7 -58
878 -51 884 3 3 35 9 70 11 59 5 64 4 69 -15 l6 -21 53 20 c106 41 203 49 287
24z m2996 -317 c10 -150 19 -293 20 -318 l1 -45 -77 -5 c-86 -6 -88 -5 -88 75
l0 39 -37 -36 c-95 -93 -247 -120 -352 -63 -95 52 -141 132 -148 260 -4 66 -1
90 17 139 71 187 299 263 450 151 l35 -26 3 38 c5 63 5 63 85 63 l73 0 18
-272z m-1410 -75 c9 -142 19 -286 23 -320 l6 -61 -74 -4 c-41 -2 -77 -1 -80 2
-4 3 -14 115 -23 250 -9 135 -19 275 -22 312 -7 76 -8 75 92 77 l61 1 17 -257z
m-835 181 c54 -21 126 -102 145 -162 8 -26 18 -75 21 -109 l7 -61 -54 -6 c-47
-5 -366 -26 -395 -26 -20 0 -2 -39 33 -70 43 -37 102 -53 168 -45 55 7 159 49
177 71 19 23 27 16 60 -48 l31 -62 -28 -23 c-42 -33 -142 -71 -224 -84 -136
-23 -267 22 -325 110 -100 151 -60 386 81 483 81 56 209 70 303 32z m2498
-376 c45 -42 23 -119 -39 -141 -32 -11 -79 14 -94 49 -34 82 68 153 133 92z"/>
<path d="M445 1036 c-22 -7 -59 -23 -83 -35 l-43 -22 3 -77 c4 -92 5 -93 130
-67 159 32 231 93 202 170 -16 42 -124 58 -209 31z"/>
<path d="M368 683 c-27 -4 -28 -6 -28 -67 0 -129 17 -150 143 -176 95 -19 223
10 241 55 12 33 6 88 -14 115 -36 50 -100 73 -214 76 -56 1 -113 0 -128 -3z"/>
<path d="M3192 930 c-46 -28 -72 -76 -72 -133 0 -179 182 -222 325 -78 47 49
47 49 40 100 -6 42 -13 56 -39 76 -76 58 -190 74 -254 35z"/>
<path d="M1220 828 c-43 -22 -89 -72 -78 -83 3 -4 63 -3 132 1 106 6 126 9
126 23 -1 25 -24 49 -63 66 -48 20 -65 19 -117 -7z"/>
<path d="M3525 270 c-11 -4 -39 -6 -62 -3 l-43 6 0 -132 0 -131 30 0 30 0 0
78 c0 69 3 81 23 100 52 49 79 20 85 -94 5 -84 5 -84 32 -84 26 0 28 3 34 54
4 29 4 65 1 78 -5 19 -1 31 16 47 53 49 81 15 83 -101 l1 -78 33 0 32 0 0 89
c0 94 -7 127 -35 154 -21 22 -93 22 -123 1 -21 -14 -24 -14 -48 5 -28 22 -55
25 -89 11z"/>
<path d="M2974 256 c-49 -22 -74 -61 -74 -116 0 -89 72 -150 160 -135 54 9 62
17 51 48 -9 24 -12 25 -40 14 -24 -9 -37 -8 -65 5 -88 43 -37 150 64 134 33
-5 38 -3 44 16 3 13 1 27 -4 32 -15 15 -103 17 -136 2z"/>
<path d="M3181 244 c-69 -58 -61 -188 15 -222 14 -7 45 -12 69 -12 111 0 166
150 85 232 -24 24 -36 28 -83 28 -45 0 -61 -5 -86 -26z m133 -56 c45 -64 -26
-155 -89 -114 -40 27 -45 85 -9 120 24 24 80 20 98 -6z"/>
<path d="M2816 71 c-14 -15 -15 -24 -6 -40 14 -27 56 -28 70 -2 13 25 13 27
-6 45 -21 21 -37 20 -58 -3z"/>
</g>
</svg>
