<?xml version="1.0" encoding="utf-8"?>
<!-- Generator: Adobe Illustrator 16.0.0, SVG Export Plug-In . SVG Version: 6.00 Build 0)  -->
<!DOCTYPE svg PUBLIC "-//W3C//DTD SVG 1.1//EN" "http://www.w3.org/Graphics/SVG/1.1/DTD/svg11.dtd">
<svg version="1.1" id="Layer_1" xmlns="http://www.w3.org/2000/svg" xmlns:xlink="http://www.w3.org/1999/xlink" x="0px" y="0px"
	 width="204px" height="39.5px" viewBox="0 0 204 39.5" enable-background="new 0 0 204 39.5" xml:space="preserve">
<polygon fill="#FFFFFF" points="39.354,26 39.354,13.789 41.753,13.789 46.751,21.945 46.751,13.789 49.042,13.789 49.042,26 
	46.569,26 41.646,18.037 41.646,26 "/>
<path fill="#FFFFFF" d="M53.384,19.854l-2.125-0.383c0.239-0.854,0.651-1.489,1.234-1.901c0.583-0.41,1.449-0.615,2.598-0.615
	c1.044,0,1.822,0.123,2.333,0.369c0.51,0.248,0.87,0.563,1.078,0.944c0.21,0.379,0.313,1.078,0.313,2.095l-0.025,2.731
	c0,0.777,0.038,1.349,0.113,1.72c0.075,0.37,0.215,0.766,0.42,1.186h-2.316c-0.061-0.154-0.136-0.385-0.224-0.689
	c-0.039-0.139-0.068-0.231-0.084-0.276c-0.4,0.389-0.827,0.68-1.283,0.875c-0.455,0.194-0.94,0.291-1.458,0.291
	c-0.91,0-1.629-0.248-2.153-0.74c-0.524-0.494-0.786-1.121-0.786-1.875c0-0.5,0.119-0.947,0.357-1.338
	c0.239-0.391,0.574-0.691,1.003-0.898c0.431-0.209,1.051-0.393,1.864-0.547c1.093-0.205,1.851-0.397,2.273-0.574v-0.235
	c0-0.449-0.111-0.769-0.334-0.963c-0.222-0.189-0.641-0.285-1.258-0.285c-0.416,0-0.741,0.082-0.974,0.246
	S53.529,19.442,53.384,19.854 M56.516,21.753c-0.3,0.098-0.775,0.219-1.425,0.355c-0.649,0.141-1.074,0.278-1.274,0.411
	c-0.305,0.216-0.457,0.492-0.457,0.824c0,0.328,0.121,0.613,0.365,0.849c0.245,0.241,0.556,0.358,0.934,0.358
	c0.421,0,0.824-0.137,1.207-0.416c0.283-0.209,0.469-0.469,0.558-0.774c0.062-0.199,0.092-0.58,0.092-1.14V21.753z"/>
<path fill="#FFFFFF" d="M65.18,17.154v1.865h-1.599v3.567c0,0.722,0.014,1.142,0.044,1.261c0.032,0.12,0.101,0.219,0.208,0.295
	c0.11,0.08,0.241,0.117,0.397,0.117c0.217,0,0.53-0.074,0.941-0.224l0.2,1.816c-0.545,0.233-1.161,0.35-1.848,0.35
	c-0.423,0-0.804-0.072-1.142-0.211c-0.339-0.143-0.587-0.326-0.746-0.551c-0.158-0.222-0.268-0.529-0.329-0.912
	c-0.05-0.273-0.075-0.822-0.075-1.648v-3.86h-1.075v-1.865h1.075v-1.758l2.35-1.365v3.123H65.18z"/>
<path fill="#FFFFFF" d="M66.803,13.789h2.342v2.164h-2.342V13.789z M66.803,17.154h2.342V26h-2.342V17.154z"/>
<path fill="#FFFFFF" d="M71.002,21.453c0-0.777,0.192-1.529,0.575-2.256c0.383-0.73,0.926-1.285,1.628-1.668
	c0.703-0.383,1.487-0.574,2.353-0.574c1.339,0,2.436,0.435,3.29,1.303c0.855,0.869,1.283,1.967,1.283,3.295
	c0,1.338-0.432,2.449-1.294,3.328c-0.865,0.879-1.951,1.32-3.262,1.32c-0.811,0-1.584-0.184-2.321-0.549
	c-0.736-0.369-1.294-0.904-1.677-1.613C71.194,23.33,71.002,22.471,71.002,21.453 M73.401,21.578c0,0.877,0.208,1.549,0.624,2.016
	c0.417,0.466,0.932,0.701,1.542,0.701s1.123-0.235,1.537-0.701c0.413-0.467,0.62-1.145,0.62-2.034c0-0.865-0.207-1.531-0.62-1.998
	c-0.414-0.466-0.927-0.701-1.537-0.701s-1.125,0.235-1.542,0.701C73.609,20.029,73.401,20.701,73.401,21.578"/>
<path fill="#FFFFFF" d="M90.012,26H87.67v-4.514c0-0.955-0.049-1.574-0.147-1.853c-0.101-0.28-0.265-0.498-0.489-0.655
	c-0.224-0.156-0.494-0.232-0.812-0.232c-0.404,0-0.769,0.111-1.091,0.332c-0.323,0.223-0.543,0.518-0.662,0.885
	c-0.12,0.365-0.18,1.043-0.18,2.031V26h-2.341v-8.846h2.173v1.299c0.774-0.998,1.745-1.498,2.918-1.498
	c0.517,0,0.989,0.092,1.414,0.277c0.43,0.188,0.752,0.426,0.971,0.713c0.22,0.289,0.373,0.617,0.459,0.983
	c0.086,0.367,0.129,0.892,0.129,1.576V26z"/>
<polygon fill="#FFFFFF" points="97.11,26 97.11,13.789 100.8,13.789 103.017,22.121 105.207,13.789 108.906,13.789 108.906,26 
	106.615,26 106.615,16.389 104.188,26 101.818,26 99.4,16.389 99.4,26 "/>
<path fill="#FFFFFF" d="M116.462,23.185l2.332,0.391c-0.301,0.857-0.772,1.508-1.42,1.955c-0.647,0.445-1.457,0.67-2.429,0.67
	c-1.538,0-2.676-0.502-3.416-1.508c-0.582-0.805-0.875-1.822-0.875-3.049c0-1.467,0.384-2.613,1.15-3.443
	c0.768-0.832,1.735-1.246,2.907-1.246c1.315,0,2.354,0.435,3.115,1.302c0.76,0.87,1.125,2.202,1.092,3.995h-5.864
	c0.018,0.695,0.204,1.234,0.565,1.619c0.36,0.388,0.812,0.58,1.351,0.58c0.366,0,0.676-0.1,0.926-0.299
	C116.145,23.951,116.333,23.63,116.462,23.185 M116.596,20.82c-0.019-0.678-0.191-1.193-0.523-1.545
	c-0.334-0.353-0.741-0.529-1.217-0.529c-0.515,0-0.935,0.187-1.267,0.558c-0.336,0.371-0.498,0.877-0.493,1.516H116.596z"/>
<path fill="#FFFFFF" d="M128.94,26h-2.174V24.7c-0.36,0.506-0.789,0.883-1.278,1.129c-0.492,0.246-0.988,0.371-1.486,0.371
	c-1.018,0-1.887-0.41-2.614-1.228c-0.724-0.818-1.086-1.961-1.086-3.428c0-1.498,0.354-2.638,1.058-3.42
	c0.706-0.779,1.598-1.17,2.674-1.17c0.989,0,1.846,0.411,2.565,1.233v-4.399h2.342V26z M122.693,21.386
	c0,0.943,0.129,1.627,0.393,2.049c0.377,0.611,0.904,0.916,1.582,0.916c0.539,0,0.996-0.229,1.375-0.688
	c0.375-0.457,0.563-1.142,0.563-2.052c0-1.016-0.182-1.748-0.549-2.194c-0.367-0.447-0.836-0.672-1.408-0.672
	c-0.555,0-1.019,0.221-1.394,0.663C122.881,19.85,122.693,20.507,122.693,21.386"/>
<path fill="#FFFFFF" d="M131.25,13.789h2.34v2.164h-2.34V13.789z M131.25,17.154h2.34V26h-2.34V17.154z"/>
<path fill="#FFFFFF" d="M137.737,19.854l-2.123-0.383c0.238-0.854,0.647-1.489,1.231-1.901c0.584-0.41,1.449-0.615,2.599-0.615
	c1.045,0,1.82,0.123,2.334,0.369c0.511,0.248,0.869,0.563,1.078,0.944c0.209,0.379,0.312,1.078,0.312,2.095l-0.024,2.731
	c0,0.777,0.038,1.349,0.114,1.72c0.074,0.37,0.215,0.766,0.42,1.186h-2.315c-0.062-0.154-0.137-0.385-0.226-0.689
	c-0.039-0.139-0.067-0.231-0.082-0.276c-0.401,0.389-0.829,0.68-1.286,0.875c-0.453,0.194-0.94,0.291-1.457,0.291
	c-0.91,0-1.629-0.248-2.154-0.74c-0.522-0.494-0.784-1.121-0.784-1.875c0-0.5,0.119-0.947,0.356-1.338
	c0.239-0.391,0.573-0.691,1.004-0.898c0.431-0.209,1.054-0.393,1.864-0.547c1.091-0.205,1.851-0.397,2.271-0.574v-0.235
	c0-0.449-0.111-0.769-0.332-0.963c-0.224-0.189-0.642-0.285-1.259-0.285c-0.416,0-0.739,0.082-0.974,0.246
	C138.071,19.156,137.883,19.442,137.737,19.854 M140.869,21.753c-0.3,0.098-0.775,0.219-1.425,0.355
	c-0.647,0.141-1.073,0.278-1.272,0.411c-0.308,0.216-0.459,0.492-0.459,0.824c0,0.328,0.123,0.613,0.367,0.849
	c0.243,0.241,0.555,0.358,0.932,0.358c0.423,0,0.824-0.137,1.207-0.416c0.285-0.209,0.47-0.469,0.558-0.774
	c0.063-0.199,0.093-0.58,0.093-1.14V21.753z"/>
<path fill="#FFFFFF" d="M155.915,21.511v-2.059h5.314v4.866c-0.517,0.5-1.265,0.939-2.246,1.32c-0.979,0.381-1.972,0.57-2.976,0.57
	c-1.28,0-2.394-0.267-3.343-0.802c-0.948-0.538-1.663-1.303-2.141-2.301c-0.478-0.996-0.716-2.08-0.716-3.252
	c0-1.272,0.267-2.403,0.8-3.391c0.534-0.988,1.313-1.746,2.34-2.275c0.783-0.404,1.758-0.606,2.924-0.606
	c1.519,0,2.701,0.317,3.554,0.953c0.853,0.635,1.401,1.514,1.644,2.637l-2.447,0.457c-0.172-0.599-0.495-1.074-0.973-1.42
	c-0.472-0.345-1.065-0.521-1.777-0.521c-1.077,0-1.936,0.34-2.567,1.025c-0.64,0.684-0.955,1.697-0.955,3.041
	c0,1.449,0.322,2.535,0.964,3.26c0.647,0.727,1.491,1.088,2.534,1.088c0.515,0,1.035-0.1,1.554-0.303
	c0.521-0.203,0.965-0.449,1.336-0.736v-1.551H155.915z"/>
<path fill="#FFFFFF" d="M165.728,26h-2.34v-8.846h2.174v1.258c0.371-0.594,0.705-0.986,1.005-1.174
	c0.297-0.189,0.633-0.283,1.012-0.283c0.533,0,1.046,0.147,1.541,0.441l-0.728,2.041c-0.393-0.255-0.76-0.382-1.098-0.382
	c-0.328,0-0.604,0.09-0.834,0.269c-0.226,0.18-0.406,0.508-0.537,0.979c-0.129,0.472-0.195,1.463-0.195,2.967V26z"/>
<path fill="#FFFFFF" d="M169.586,21.453c0-0.777,0.188-1.529,0.574-2.256c0.383-0.73,0.926-1.285,1.629-1.668
	s1.485-0.574,2.353-0.574c1.338,0,2.437,0.435,3.291,1.303c0.854,0.869,1.281,1.967,1.281,3.295c0,1.338-0.431,2.449-1.294,3.328
	c-0.864,0.879-1.95,1.32-3.262,1.32c-0.812,0-1.584-0.184-2.319-0.549c-0.738-0.369-1.296-0.904-1.679-1.613
	C169.774,23.33,169.586,22.471,169.586,21.453 M171.984,21.578c0,0.877,0.209,1.549,0.625,2.016c0.418,0.466,0.93,0.701,1.54,0.701
	c0.611,0,1.125-0.235,1.537-0.701c0.414-0.467,0.621-1.145,0.621-2.034c0-0.865-0.207-1.531-0.621-1.998
	c-0.412-0.466-0.926-0.701-1.537-0.701c-0.61,0-1.122,0.235-1.54,0.701C172.193,20.029,171.984,20.701,171.984,21.578"/>
<path fill="#FFFFFF" d="M186.373,26v-1.324c-0.322,0.472-0.748,0.844-1.271,1.119c-0.526,0.271-1.081,0.406-1.663,0.406
	c-0.593,0-1.127-0.131-1.599-0.391c-0.474-0.261-0.815-0.628-1.026-1.099c-0.211-0.473-0.315-1.125-0.315-1.959v-5.598h2.342v4.067
	c0,1.244,0.043,2.006,0.127,2.287c0.088,0.279,0.244,0.502,0.472,0.666c0.228,0.162,0.516,0.244,0.866,0.244
	c0.399,0,0.759-0.109,1.076-0.33c0.315-0.219,0.533-0.488,0.649-0.815c0.115-0.326,0.174-1.119,0.174-2.386v-3.733h2.343V26H186.373
	z"/>
<path fill="#FFFFFF" d="M190.904,17.154h2.181v1.298c0.283-0.445,0.668-0.806,1.151-1.082c0.479-0.277,1.019-0.416,1.607-0.416
	c1.026,0,1.899,0.405,2.614,1.207c0.717,0.807,1.074,1.928,1.074,3.368c0,1.474-0.359,2.625-1.082,3.443
	c-0.722,0.818-1.597,1.228-2.625,1.228c-0.488,0-0.931-0.097-1.33-0.291c-0.396-0.195-0.812-0.527-1.25-1v4.458h-2.341V17.154z
	 M193.219,21.429c0,0.992,0.198,1.727,0.592,2.203c0.394,0.473,0.875,0.711,1.44,0.711c0.545,0,0.996-0.219,1.36-0.654
	c0.359-0.438,0.541-1.151,0.541-2.145c0-0.928-0.188-1.617-0.559-2.066c-0.373-0.449-0.834-0.676-1.384-0.676
	c-0.571,0-1.047,0.221-1.424,0.664C193.407,19.908,193.219,20.561,193.219,21.429"/>
<path fill="#005CB9" d="M30.198,14.066l-8.603-8.398c0,0,0.005,11.189,0.043,12.078c0.081,2.314-2.322,4.828-6.041,3.715v0.15
	l8.923,8.061c0,0,1.717,1.146,3.654,0.125c1.514-0.811,2.035-2.205,2.007-2.799C30.161,26.496,30.198,14.066,30.198,14.066
	 M18.933,13.539l-0.001-0.148L10.021,5.32c0,0-1.725-1.136-3.658-0.113C4.853,6.012,4.336,7.412,4.365,8
	C4.384,8.501,4.34,20.928,4.34,20.928l8.604,8.408c0,0-0.01-11.194-0.038-12.088C12.826,14.937,15.217,12.424,18.933,13.539"/>
<g>
	<path fill="#FFFFFF" d="M39.312,35.22v-4.881h1.475l0.886,3.33l0.875-3.33h1.479v4.881h-0.916v-3.842l-0.969,3.842h-0.949
		l-0.966-3.842v3.842H39.312z"/>
	<path fill="#FFFFFF" d="M47.046,34.095l0.933,0.157c-0.12,0.342-0.309,0.602-0.568,0.781S46.829,35.3,46.44,35.3
		c-0.615,0-1.07-0.201-1.365-0.603c-0.233-0.322-0.35-0.728-0.35-1.218c0-0.586,0.153-1.045,0.459-1.377
		c0.307-0.332,0.694-0.498,1.162-0.498c0.526,0,0.941,0.174,1.246,0.521c0.304,0.348,0.449,0.88,0.436,1.597h-2.344
		c0.007,0.278,0.082,0.494,0.227,0.648c0.144,0.154,0.324,0.231,0.54,0.231c0.146,0,0.27-0.04,0.37-0.12
		C46.92,34.401,46.996,34.272,47.046,34.095z M47.1,33.149c-0.006-0.271-0.076-0.477-0.209-0.618
		c-0.133-0.141-0.295-0.211-0.486-0.211c-0.204,0-0.373,0.075-0.506,0.223c-0.133,0.149-0.199,0.351-0.197,0.606H47.1z"/>
	<path fill="#FFFFFF" d="M52.034,35.22h-0.869v-0.52c-0.145,0.202-0.315,0.353-0.511,0.451C50.458,35.25,50.26,35.3,50.06,35.3
		c-0.406,0-0.754-0.164-1.044-0.491c-0.29-0.328-0.435-0.784-0.435-1.37c0-0.6,0.141-1.055,0.423-1.367
		c0.282-0.312,0.638-0.468,1.069-0.468c0.395,0,0.737,0.165,1.025,0.493v-1.758h0.936V35.22z M49.537,33.375
		c0,0.377,0.052,0.65,0.156,0.819c0.151,0.244,0.362,0.366,0.633,0.366c0.215,0,0.398-0.092,0.549-0.275s0.227-0.457,0.227-0.821
		c0-0.406-0.073-0.699-0.22-0.877s-0.334-0.268-0.563-0.268c-0.222,0-0.408,0.088-0.558,0.265
		C49.612,32.761,49.537,33.025,49.537,33.375z"/>
	<path fill="#FFFFFF" d="M52.957,31.205v-0.866h0.936v0.866H52.957z M52.957,35.22v-3.536h0.936v3.536H52.957z"/>
	<path fill="#FFFFFF" d="M55.55,32.763l-0.849-0.153c0.095-0.342,0.259-0.595,0.493-0.759c0.233-0.165,0.579-0.247,1.039-0.247
		c0.417,0,0.729,0.049,0.933,0.148c0.204,0.099,0.348,0.224,0.431,0.376c0.083,0.152,0.125,0.431,0.125,0.837l-0.01,1.092
		c0,0.311,0.015,0.54,0.045,0.688c0.03,0.148,0.086,0.306,0.168,0.475h-0.926c-0.024-0.062-0.055-0.154-0.09-0.276
		c-0.016-0.056-0.027-0.092-0.033-0.11c-0.16,0.155-0.331,0.272-0.513,0.35c-0.182,0.078-0.376,0.117-0.583,0.117
		c-0.364,0-0.651-0.099-0.861-0.296c-0.209-0.198-0.314-0.447-0.314-0.75c0-0.2,0.048-0.378,0.143-0.534
		c0.095-0.157,0.229-0.276,0.401-0.36c0.172-0.083,0.42-0.156,0.744-0.218c0.437-0.082,0.74-0.159,0.909-0.23v-0.093
		c0-0.18-0.044-0.308-0.133-0.384c-0.089-0.077-0.256-0.115-0.503-0.115c-0.167,0-0.296,0.033-0.39,0.099
		S55.608,32.599,55.55,32.763z M56.803,33.522c-0.12,0.04-0.31,0.088-0.57,0.143c-0.259,0.056-0.429,0.11-0.509,0.164
		c-0.122,0.086-0.183,0.196-0.183,0.33c0,0.131,0.049,0.244,0.146,0.339c0.098,0.096,0.222,0.143,0.373,0.143
		c0.168,0,0.33-0.055,0.483-0.167c0.113-0.084,0.188-0.188,0.223-0.31c0.024-0.08,0.037-0.232,0.037-0.456V33.522z"/>
	<path fill="#FFFFFF" d="M60.322,33.402c0-0.311,0.077-0.612,0.23-0.902c0.153-0.291,0.37-0.513,0.651-0.666
		c0.281-0.153,0.594-0.23,0.94-0.23c0.535,0,0.974,0.174,1.315,0.521c0.342,0.348,0.513,0.787,0.513,1.317
		c0,0.535-0.172,0.979-0.518,1.331c-0.345,0.352-0.78,0.528-1.304,0.528c-0.324,0-0.633-0.073-0.927-0.22
		c-0.294-0.146-0.518-0.361-0.671-0.645C60.398,34.153,60.322,33.809,60.322,33.402z M61.281,33.452c0,0.351,0.083,0.619,0.25,0.806
		s0.372,0.28,0.616,0.28s0.449-0.093,0.614-0.28c0.166-0.187,0.248-0.457,0.248-0.812c0-0.346-0.083-0.612-0.248-0.799
		c-0.165-0.187-0.37-0.28-0.614-0.28s-0.449,0.093-0.616,0.28S61.281,33.102,61.281,33.452z"/>
	<path fill="#FFFFFF" d="M64.294,31.684h0.519v-0.267c0-0.297,0.032-0.519,0.095-0.666c0.063-0.146,0.18-0.266,0.35-0.358
		c0.17-0.092,0.384-0.138,0.644-0.138c0.267,0,0.527,0.04,0.783,0.12l-0.126,0.653c-0.149-0.036-0.292-0.054-0.43-0.054
		c-0.135,0-0.232,0.032-0.292,0.095c-0.059,0.063-0.088,0.185-0.088,0.364v0.25h0.699v0.736H65.75v2.8h-0.936v-2.8h-0.519V31.684z"
		/>
	<path fill="#FFFFFF" d="M73.278,35.22h-1.072l-0.426-1.109h-1.952l-0.403,1.109H68.38l1.901-4.881h1.042L73.278,35.22z
		 M71.463,33.289l-0.673-1.812l-0.659,1.812H71.463z"/>
	<path fill="#FFFFFF" d="M73.385,31.684h0.519v-0.267c0-0.297,0.032-0.519,0.095-0.666c0.063-0.146,0.18-0.266,0.35-0.358
		c0.17-0.092,0.384-0.138,0.644-0.138c0.267,0,0.527,0.04,0.783,0.12l-0.126,0.653c-0.149-0.036-0.292-0.054-0.43-0.054
		c-0.135,0-0.232,0.032-0.292,0.095c-0.059,0.063-0.088,0.185-0.088,0.364v0.25h0.699v0.736H74.84v2.8h-0.936v-2.8h-0.519V31.684z"
		/>
	<path fill="#FFFFFF" d="M76.961,35.22h-0.936v-3.536h0.869v0.503c0.149-0.238,0.283-0.394,0.401-0.47
		c0.119-0.075,0.254-0.113,0.405-0.113c0.213,0,0.418,0.059,0.616,0.177l-0.29,0.815c-0.158-0.102-0.304-0.153-0.439-0.153
		c-0.131,0-0.242,0.036-0.333,0.108c-0.091,0.072-0.163,0.203-0.215,0.392c-0.052,0.188-0.078,0.583-0.078,1.185V35.22z"/>
	<path fill="#FFFFFF" d="M78.719,31.205v-0.866h0.936v0.866H78.719z M78.719,35.22v-3.536h0.936v3.536H78.719z"/>
	<path fill="#FFFFFF" d="M83.697,32.729l-0.923,0.167c-0.031-0.184-0.102-0.323-0.211-0.416c-0.11-0.093-0.253-0.14-0.429-0.14
		c-0.232,0-0.419,0.081-0.558,0.242c-0.139,0.161-0.208,0.43-0.208,0.807c0,0.42,0.07,0.716,0.212,0.889
		c0.141,0.173,0.33,0.26,0.567,0.26c0.178,0,0.323-0.05,0.437-0.151s0.192-0.275,0.239-0.521l0.919,0.156
		c-0.095,0.422-0.278,0.74-0.549,0.956c-0.271,0.215-0.634,0.323-1.089,0.323c-0.518,0-0.93-0.163-1.237-0.49
		c-0.308-0.326-0.461-0.778-0.461-1.355c0-0.584,0.154-1.039,0.463-1.364s0.726-0.488,1.252-0.488c0.431,0,0.772,0.093,1.027,0.278
		C83.403,32.067,83.586,32.35,83.697,32.729z"/>
	<path fill="#FFFFFF" d="M85.104,32.763l-0.849-0.153c0.095-0.342,0.26-0.595,0.492-0.759c0.233-0.165,0.58-0.247,1.039-0.247
		c0.418,0,0.729,0.049,0.933,0.148c0.204,0.099,0.348,0.224,0.431,0.376c0.084,0.152,0.125,0.431,0.125,0.837l-0.01,1.092
		c0,0.311,0.015,0.54,0.045,0.688c0.03,0.148,0.086,0.306,0.168,0.475h-0.926c-0.024-0.062-0.054-0.154-0.09-0.276
		c-0.016-0.056-0.026-0.092-0.033-0.11c-0.159,0.155-0.33,0.272-0.513,0.35c-0.182,0.078-0.376,0.117-0.582,0.117
		c-0.364,0-0.651-0.099-0.861-0.296c-0.21-0.198-0.314-0.447-0.314-0.75c0-0.2,0.048-0.378,0.144-0.534
		c0.095-0.157,0.229-0.276,0.4-0.36c0.173-0.083,0.421-0.156,0.744-0.218c0.438-0.082,0.741-0.159,0.909-0.23v-0.093
		c0-0.18-0.044-0.308-0.133-0.384c-0.089-0.077-0.257-0.115-0.503-0.115c-0.166,0-0.296,0.033-0.39,0.099
		C85.238,32.484,85.162,32.599,85.104,32.763z M86.356,33.522c-0.119,0.04-0.31,0.088-0.569,0.143
		c-0.26,0.056-0.43,0.11-0.509,0.164c-0.122,0.086-0.184,0.196-0.184,0.33c0,0.131,0.049,0.244,0.146,0.339
		c0.098,0.096,0.222,0.143,0.373,0.143c0.169,0,0.329-0.055,0.482-0.167c0.113-0.084,0.188-0.188,0.224-0.31
		c0.024-0.08,0.036-0.232,0.036-0.456V33.522z"/>
	<path fill="#FFFFFF" d="M89.684,31.684h0.52v-0.267c0-0.297,0.031-0.519,0.095-0.666c0.063-0.146,0.18-0.266,0.35-0.358
		c0.17-0.092,0.385-0.138,0.645-0.138c0.266,0,0.527,0.04,0.782,0.12l-0.127,0.653c-0.148-0.036-0.292-0.054-0.429-0.054
		c-0.136,0-0.233,0.032-0.292,0.095c-0.059,0.063-0.088,0.185-0.088,0.364v0.25h0.699v0.736h-0.699v2.8h-0.936v-2.8h-0.52V31.684z"
		/>
	<path fill="#FFFFFF" d="M92.148,33.402c0-0.311,0.076-0.612,0.229-0.902c0.153-0.291,0.37-0.513,0.65-0.666
		c0.281-0.153,0.595-0.23,0.941-0.23c0.534,0,0.973,0.174,1.314,0.521c0.343,0.348,0.514,0.787,0.514,1.317
		c0,0.535-0.173,0.979-0.519,1.331C94.935,35.124,94.5,35.3,93.976,35.3c-0.323,0-0.633-0.073-0.927-0.22s-0.518-0.361-0.671-0.645
		S92.148,33.809,92.148,33.402z M93.107,33.452c0,0.351,0.083,0.619,0.249,0.806c0.167,0.187,0.372,0.28,0.616,0.28
		s0.449-0.093,0.614-0.28s0.248-0.457,0.248-0.812c0-0.346-0.083-0.612-0.248-0.799s-0.37-0.28-0.614-0.28s-0.449,0.093-0.616,0.28
		C93.19,32.833,93.107,33.102,93.107,33.452z"/>
	<path fill="#FFFFFF" d="M97.425,35.22h-0.936v-3.536h0.869v0.503c0.148-0.238,0.282-0.394,0.401-0.47
		c0.119-0.075,0.254-0.113,0.404-0.113c0.214,0,0.419,0.059,0.616,0.177l-0.289,0.815c-0.158-0.102-0.305-0.153-0.44-0.153
		c-0.131,0-0.241,0.036-0.333,0.108c-0.091,0.072-0.162,0.203-0.214,0.392c-0.053,0.188-0.079,0.583-0.079,1.185V35.22z"/>
	<path fill="#FFFFFF" d="M105.487,35.22h-1.072l-0.427-1.109h-1.951l-0.402,1.109h-1.046l1.901-4.881h1.042L105.487,35.22z
		 M103.672,33.289L103,31.478l-0.66,1.812H103.672z"/>
	<path fill="#FFFFFF" d="M105.593,31.684h0.52v-0.267c0-0.297,0.031-0.519,0.095-0.666c0.063-0.146,0.18-0.266,0.35-0.358
		c0.17-0.092,0.385-0.138,0.645-0.138c0.266,0,0.527,0.04,0.782,0.12l-0.127,0.653c-0.148-0.036-0.292-0.054-0.429-0.054
		c-0.136,0-0.233,0.032-0.292,0.095c-0.059,0.063-0.088,0.185-0.088,0.364v0.25h0.699v0.736h-0.699v2.8h-0.936v-2.8h-0.52V31.684z"
		/>
	<path fill="#FFFFFF" d="M109.169,35.22h-0.936v-3.536h0.869v0.503c0.148-0.238,0.282-0.394,0.401-0.47
		c0.119-0.075,0.254-0.113,0.404-0.113c0.214,0,0.419,0.059,0.616,0.177l-0.289,0.815c-0.158-0.102-0.305-0.153-0.44-0.153
		c-0.131,0-0.241,0.036-0.333,0.108c-0.091,0.072-0.162,0.203-0.214,0.392c-0.053,0.188-0.079,0.583-0.079,1.185V35.22z"/>
	<path fill="#FFFFFF" d="M110.927,31.205v-0.866h0.936v0.866H110.927z M110.927,35.22v-3.536h0.936v3.536H110.927z"/>
	<path fill="#FFFFFF" d="M115.905,32.729l-0.923,0.167c-0.031-0.184-0.102-0.323-0.211-0.416c-0.11-0.093-0.253-0.14-0.429-0.14
		c-0.232,0-0.419,0.081-0.558,0.242c-0.139,0.161-0.208,0.43-0.208,0.807c0,0.42,0.07,0.716,0.212,0.889
		c0.141,0.173,0.33,0.26,0.567,0.26c0.178,0,0.323-0.05,0.437-0.151s0.192-0.275,0.239-0.521l0.919,0.156
		c-0.095,0.422-0.278,0.74-0.549,0.956c-0.271,0.215-0.634,0.323-1.089,0.323c-0.518,0-0.93-0.163-1.237-0.49
		c-0.308-0.326-0.461-0.778-0.461-1.355c0-0.584,0.154-1.039,0.463-1.364s0.726-0.488,1.252-0.488c0.431,0,0.772,0.093,1.027,0.278
		C115.611,32.067,115.794,32.35,115.905,32.729z"/>
	<path fill="#FFFFFF" d="M117.313,32.763l-0.849-0.153c0.095-0.342,0.26-0.595,0.492-0.759c0.233-0.165,0.58-0.247,1.039-0.247
		c0.418,0,0.729,0.049,0.933,0.148c0.204,0.099,0.348,0.224,0.431,0.376c0.084,0.152,0.125,0.431,0.125,0.837l-0.01,1.092
		c0,0.311,0.015,0.54,0.045,0.688c0.03,0.148,0.086,0.306,0.168,0.475h-0.926c-0.024-0.062-0.054-0.154-0.09-0.276
		c-0.016-0.056-0.026-0.092-0.033-0.11c-0.159,0.155-0.33,0.272-0.513,0.35c-0.182,0.078-0.376,0.117-0.582,0.117
		c-0.364,0-0.651-0.099-0.861-0.296c-0.21-0.198-0.314-0.447-0.314-0.75c0-0.2,0.048-0.378,0.144-0.534
		c0.095-0.157,0.229-0.276,0.4-0.36c0.173-0.083,0.421-0.156,0.744-0.218c0.438-0.082,0.741-0.159,0.909-0.23v-0.093
		c0-0.18-0.044-0.308-0.133-0.384c-0.089-0.077-0.257-0.115-0.503-0.115c-0.166,0-0.296,0.033-0.39,0.099
		C117.447,32.484,117.371,32.599,117.313,32.763z M118.565,33.522c-0.119,0.04-0.31,0.088-0.569,0.143
		c-0.26,0.056-0.43,0.11-0.509,0.164c-0.122,0.086-0.184,0.196-0.184,0.33c0,0.131,0.049,0.244,0.146,0.339
		c0.098,0.096,0.222,0.143,0.373,0.143c0.169,0,0.329-0.055,0.482-0.167c0.113-0.084,0.188-0.188,0.224-0.31
		c0.024-0.08,0.036-0.232,0.036-0.456V33.522z"/>
</g>
<g>
</g>
<g>
</g>
<g>
</g>
<g>
</g>
<g>
</g>
<g>
</g>
</svg>
