<?xml version="1.0" encoding="iso-8859-1"?>
<!-- Generator: Adobe Illustrator 25.2.0, SVG Export Plug-In . SVG Version: 6.00 Build 0)  -->
<svg version="1.1" id="Layer_1" xmlns="http://www.w3.org/2000/svg" xmlns:xlink="http://www.w3.org/1999/xlink" x="0px" y="0px"
	 viewBox="0 0 1000 1000" style="enable-background:new 0 0 1000 1000;" xml:space="preserve">
<g id="watermark">
	<g>
		<g>
			<g>
				<g>
					<polygon style="fill:#606060;" points="436.588,945.438 426.857,967.917 421.719,967.917 412.021,945.438 417.641,945.438 
						424.481,961.495 431.417,945.438 					"/>
				</g>
				<g>
					<path style="fill:#606060;" d="M453.638,960.435h-13.07c0.481,2.152,2.312,3.468,4.946,3.468c1.83,0,3.147-0.546,4.335-1.67
						l2.665,2.89c-1.606,1.831-4.014,2.794-7.129,2.794c-5.973,0-9.859-3.757-9.859-8.896c0-5.17,3.95-8.895,9.217-8.895
						c5.073,0,8.992,3.404,8.992,8.96C453.734,959.472,453.67,960.018,453.638,960.435 M440.503,957.513h8.51
						c-0.354-2.184-1.992-3.597-4.239-3.597C442.494,953.916,440.856,955.297,440.503,957.513"/>
				</g>
				<g>
					<path style="fill:#606060;" d="M455.787,959.022c0-5.202,4.014-8.895,9.634-8.895c3.629,0,6.487,1.574,7.739,4.4l-3.886,2.087
						c-0.932-1.638-2.312-2.376-3.886-2.376c-2.537,0-4.528,1.766-4.528,4.785c0,3.019,1.991,4.785,4.528,4.785
						c1.574,0,2.954-0.707,3.886-2.376l3.886,2.119c-1.252,2.762-4.111,4.367-7.739,4.367
						C459.801,967.917,455.787,964.225,455.787,959.022"/>
				</g>
				<g>
					<path style="fill:#606060;" d="M487.449,966.826c-1.028,0.739-2.537,1.092-4.079,1.092c-4.078,0-6.455-2.087-6.455-6.198
						v-7.097h-2.666v-3.854h2.666v-4.206h5.01v4.206h4.303v3.854h-4.303v7.033c0,1.477,0.802,2.28,2.151,2.28
						c0.738,0,1.477-0.224,2.023-0.642L487.449,966.826z"/>
				</g>
			</g>
			<g>
				<path style="fill:#606060;" d="M521.829,950.383v4.624c-0.417-0.032-0.738-0.064-1.124-0.064c-2.761,0-4.592,1.509-4.592,4.817
					v8.157h-5.01V950.64h4.785v2.28C517.109,951.25,519.164,950.383,521.829,950.383"/>
			</g>
			<g>
				<path style="fill:#606060;" d="M523.274,965.316l1.766-3.918c1.895,1.381,4.721,2.344,7.418,2.344
					c3.083,0,4.335-1.028,4.335-2.409c0-4.207-13.07-1.316-13.07-9.666c0-3.821,3.083-7.001,9.473-7.001
					c2.826,0,5.716,0.674,7.804,1.991l-1.606,3.95c-2.087-1.188-4.239-1.766-6.23-1.766c-3.083,0-4.271,1.156-4.271,2.569
					c0,4.143,13.07,1.284,13.07,9.538c0,3.758-3.115,6.969-9.537,6.969C528.861,967.917,525.265,966.858,523.274,965.316"/>
			</g>
			<g>
				<path style="fill:#606060;" d="M562,960.435h-13.07c0.481,2.152,2.312,3.468,4.946,3.468c1.83,0,3.147-0.546,4.335-1.67
					l2.666,2.89c-1.606,1.831-4.014,2.794-7.129,2.794c-5.973,0-9.859-3.757-9.859-8.896c0-5.17,3.95-8.895,9.216-8.895
					c5.074,0,8.992,3.404,8.992,8.96C562.097,959.472,562.032,960.018,562,960.435 M548.865,957.513h8.51
					c-0.353-2.184-1.991-3.597-4.239-3.597C550.856,953.916,549.219,955.297,548.865,957.513"/>
			</g>
			<g>
				<path style="fill:#606060;" d="M582.261,960.435h-13.07c0.481,2.152,2.312,3.468,4.945,3.468c1.831,0,3.147-0.546,4.335-1.67
					l2.666,2.89c-1.606,1.831-4.014,2.794-7.129,2.794c-5.973,0-9.859-3.757-9.859-8.896c0-5.17,3.95-8.895,9.217-8.895
					c5.074,0,8.992,3.404,8.992,8.96C582.358,959.472,582.294,960.018,582.261,960.435 M569.127,957.513h8.51
					c-0.353-2.184-1.991-3.597-4.239-3.597C571.118,953.916,569.48,955.297,569.127,957.513"/>
			</g>
			<g>
				<polygon style="fill:#606060;" points="593.114,961.141 590.705,963.518 590.705,967.917 585.696,967.917 585.696,944.09 
					590.705,944.09 590.705,957.577 598.027,950.64 604,950.64 596.807,957.962 604.642,967.917 598.573,967.917 				"/>
			</g>
			<g>
				<path style="fill:#606060;" d="M511.552,970.267L511.552,970.267l-5.005-5.005c-0.762,0.89-1.668,1.651-2.684,2.247
					c-0.162,0.12-0.326,0.238-0.495,0.348l5.297,5.297c0.797,0.797,2.09,0.797,2.888,0
					C512.349,972.357,512.349,971.064,511.552,970.267"/>
			</g>
			<g>
				<path style="fill:#F84D10;" d="M499.972,949.065c0.386-0.303,0.866-0.492,1.395-0.492c0.073,0,0.146,0.004,0.217,0.01
					c-0.375-0.274-0.837-0.436-1.337-0.436c-0.691,0-1.301,0.315-1.718,0.802c-0.089,0-0.175,0.01-0.264,0.013
					c0.069-0.134,0.112-0.284,0.112-0.446c0-0.409-0.25-0.76-0.605-0.908c0.152,0.221,0.242,0.489,0.242,0.778
					c0,0.214-0.053,0.415-0.141,0.596c-4.918,0.351-8.802,4.442-8.802,9.45c0,5.238,4.246,9.484,9.485,9.484
					c5.239,0,9.485-4.246,9.485-9.484C508.042,953.676,504.537,949.75,499.972,949.065 M496.471,951.536
					c0.761,0,1.477,0.196,2.099,0.541c0.654-0.428,1.435-0.677,2.273-0.677c1.244,0,2.359,0.547,3.121,1.411
					c-0.762-0.664-1.757-1.067-2.847-1.067c-0.785,0-1.523,0.21-2.159,0.576c-0.139,0.08-0.273,0.167-0.401,0.262
					c-0.114-0.083-0.233-0.163-0.357-0.235c-0.646-0.383-1.4-0.602-2.205-0.602c-0.525,0-1.028,0.094-1.495,0.266
					C495.092,951.708,495.762,951.536,496.471,951.536 M503.101,959.31c0.201,0.533,0.316,1.109,0.316,1.713
					c0,2.685-2.176,4.86-4.861,4.86c-2.684,0-4.86-2.176-4.86-4.86c0-0.604,0.115-1.179,0.316-1.713
					c-1.085-0.668-1.811-1.863-1.811-3.23c0-2.095,1.699-3.794,3.794-3.794c0.988,0,1.886,0.381,2.561,1
					c0.675-0.619,1.572-1,2.561-1c2.095,0,3.794,1.699,3.794,3.794C504.912,957.447,504.186,958.642,503.101,959.31"/>
			</g>
			<g>
				<path style="fill:#444444;" d="M502.916,955.745c0,0.87-0.706,1.576-1.576,1.576c-0.869,0-1.576-0.707-1.576-1.576
					c0-0.869,0.706-1.576,1.576-1.576c0.177,0,0.344,0.03,0.503,0.082c-0.052,0.109-0.079,0.231-0.079,0.358
					c0,0.478,0.387,0.865,0.865,0.865c0.088,0,0.174-0.013,0.256-0.038C502.904,955.535,502.916,955.639,502.916,955.745"/>
			</g>
			<g>
				<path style="fill:#444444;" d="M496.947,955.745c0,0.658-0.534,1.192-1.192,1.192c-0.658,0-1.192-0.534-1.192-1.192
					s0.534-1.192,1.192-1.192c0.133,0,0.26,0.022,0.38,0.062c-0.04,0.082-0.06,0.175-0.06,0.271c0,0.361,0.293,0.654,0.654,0.654
					c0.067,0,0.132-0.01,0.193-0.029C496.938,955.586,496.947,955.665,496.947,955.745"/>
			</g>
			<g>
				<g>
					<g>
						<rect x="487.589" y="957.09" style="fill:#606060;" width="1.077" height="1.077"/>
					</g>
					<g>
						<rect x="508.448" y="957.09" style="fill:#606060;" width="1.077" height="1.077"/>
					</g>
					<g>
						<path style="fill:#606060;" d="M509.109,957.531h-0.245c0-5.683-4.624-10.307-10.307-10.307
							c-5.683,0-10.307,4.624-10.307,10.307h-0.245c0-2.819,1.098-5.468,3.091-7.461c1.993-1.993,4.643-3.091,7.461-3.091
							c2.819,0,5.469,1.098,7.462,3.091C508.011,952.062,509.109,954.712,509.109,957.531"/>
					</g>
				</g>
				<g>
					<rect x="498.018" y="946.562" style="fill:#606060;" width="1.077" height="1.077"/>
				</g>
				<g>
					<rect x="491.163" y="946.979" style="fill:#606060;" width="14.788" height="0.245"/>
				</g>
				<g>
					<path style="fill:#606060;" d="M491.555,947.15c0,0.189-0.153,0.343-0.343,0.343c-0.189,0-0.343-0.154-0.343-0.343
						s0.153-0.343,0.343-0.343C491.401,946.807,491.555,946.961,491.555,947.15"/>
				</g>
				<g>
					<path style="fill:#606060;" d="M506.293,947.15c0,0.189-0.153,0.343-0.343,0.343c-0.189,0-0.343-0.154-0.343-0.343
						s0.153-0.343,0.343-0.343C506.14,946.807,506.293,946.961,506.293,947.15"/>
				</g>
			</g>
		</g>
		<g>
			<path style="fill:#606060;" d="M612.624,966.854c0,2.729-4.136,2.729-4.136,0C608.487,964.128,612.624,964.128,612.624,966.854z"
				/>
		</g>
		<g>
			<g>
				<g>
					<path style="fill:#606060;" d="M345.544,954.85l3.102,10.653l3.246-10.653h3.877l-4.94,14.245h-4.078l-1.465-4.193l-1.264-4.74
						l-1.263,4.74l-1.465,4.193h-4.078l-4.968-14.245h3.905l3.246,10.653l3.073-10.653H345.544z"/>
				</g>
				<g>
					<path style="fill:#606060;" d="M371.748,954.85l3.102,10.653l3.246-10.653h3.877l-4.94,14.245h-4.078l-1.465-4.193l-1.263-4.74
						l-1.264,4.74l-1.465,4.193h-4.078l-4.968-14.245h3.905l3.246,10.653l3.073-10.653H371.748z"/>
				</g>
				<g>
					<path style="fill:#606060;" d="M397.952,954.85l3.102,10.653l3.246-10.653h3.877l-4.94,14.245h-4.078l-1.465-4.193l-1.264-4.74
						l-1.263,4.74l-1.465,4.193h-4.078l-4.968-14.245h3.905l3.246,10.653l3.073-10.653H397.952z"/>
				</g>
			</g>
			<g>
				<path style="fill:#606060;" d="M414.089,967.048c0,2.729-4.136,2.729-4.136,0C409.953,964.321,414.089,964.321,414.089,967.048z
					"/>
			</g>
			<g>
				<path style="fill:#606060;" d="M627.243,966.854c-1.637,1.609-3.358,2.24-5.455,2.24c-4.106,0-7.525-2.469-7.525-7.494
					c0-5.025,3.419-7.497,7.525-7.497c2.011,0,3.561,0.575,5.112,2.097l-2.212,2.327c-0.832-0.748-1.866-1.12-2.841-1.12
					c-2.355,0-4.078,1.723-4.078,4.193c0,2.698,1.838,4.134,4.02,4.134c1.12,0,2.24-0.316,3.101-1.176L627.243,966.854z"/>
			</g>
			<g>
				<path style="fill:#606060;" d="M643.159,961.715c0,4.078-2.785,7.38-7.38,7.38c-4.595,0-7.352-3.302-7.352-7.38
					c0-4.05,2.815-7.38,7.324-7.38C640.26,954.335,643.159,957.665,643.159,961.715z M631.931,961.715
					c0,2.154,1.293,4.165,3.849,4.165c2.556,0,3.849-2.011,3.849-4.165c0-2.125-1.494-4.193-3.849-4.193
					C633.252,957.522,631.931,959.589,631.931,961.715z"/>
			</g>
			<g>
				<path style="fill:#606060;" d="M655.001,969.094v-7.581c0-1.868-0.977-3.561-2.902-3.561c-1.894,0-3.014,1.693-3.014,3.561
					v7.581h-3.505v-14.186h3.246l0.26,1.723c0.746-1.436,2.383-1.952,3.732-1.952c1.695,0,3.391,0.69,4.193,2.642
					c1.265-2.011,2.902-2.586,4.74-2.586c4.02,0,6.002,2.472,6.002,6.72v7.639h-3.505v-7.639c0-1.866-0.774-3.447-2.67-3.447
					c-1.894,0-3.073,1.637-3.073,3.505v7.581H655.001z"/>
			</g>
		</g>
	</g>
	<g>
		<path style="fill:#606060;" d="M333.081,934.351v-10.75h3.288c1.642,0,2.96,0.495,3.956,1.486s1.494,2.287,1.494,3.889
			c0,1.611-0.498,2.91-1.494,3.896c-0.996,0.985-2.314,1.479-3.956,1.479H333.081z M334.462,924.922v8.107h1.907
			c1.251,0,2.237-0.357,2.958-1.073s1.081-1.709,1.081-2.98c0-1.262-0.36-2.252-1.081-2.973s-1.707-1.081-2.958-1.081H334.462z"/>
		<path style="fill:#606060;" d="M342.57,930.672c0-1.131,0.355-2.066,1.066-2.808c0.721-0.74,1.626-1.111,2.718-1.111
			c1.091,0,1.992,0.371,2.703,1.111c0.721,0.741,1.081,1.677,1.081,2.808c0,1.142-0.36,2.077-1.081,2.808
			c-0.711,0.741-1.612,1.111-2.703,1.111c-1.091,0-1.997-0.37-2.718-1.111C342.925,932.739,342.57,931.804,342.57,930.672z
			 M343.952,930.672c0,0.791,0.23,1.432,0.69,1.922s1.031,0.736,1.712,0.736s1.251-0.246,1.711-0.736s0.691-1.131,0.691-1.922
			c0-0.78-0.23-1.416-0.691-1.906c-0.471-0.501-1.041-0.751-1.711-0.751c-0.671,0-1.241,0.25-1.712,0.751
			C344.182,929.256,343.952,929.892,343.952,930.672z"/>
		<path style="fill:#606060;" d="M361.668,926.993l-2.372,7.357h-1.412l-1.832-5.646l-1.817,5.646h-1.396l-2.372-7.357h1.441
			l1.637,5.556h0.015l1.817-5.556h1.426l1.817,5.556h0.015l1.622-5.556H361.668z"/>
		<path style="fill:#606060;" d="M362.569,926.993h1.321v1.021h0.06c0.21-0.36,0.533-0.661,0.968-0.901s0.888-0.36,1.359-0.36
			c0.901,0,1.594,0.258,2.08,0.773c0.485,0.516,0.728,1.249,0.728,2.2v4.624h-1.381v-4.534c-0.03-1.201-0.636-1.802-1.816-1.802
			c-0.551,0-1.011,0.223-1.381,0.668c-0.371,0.445-0.556,0.979-0.556,1.599v4.069h-1.381V926.993z"/>
		<path style="fill:#606060;" d="M372.088,923.601v10.75h-1.381v-10.75H372.088z"/>
		<path style="fill:#606060;" d="M373.275,930.672c0-1.131,0.355-2.066,1.066-2.808c0.721-0.74,1.626-1.111,2.718-1.111
			c1.091,0,1.992,0.371,2.703,1.111c0.721,0.741,1.081,1.677,1.081,2.808c0,1.142-0.36,2.077-1.081,2.808
			c-0.711,0.741-1.612,1.111-2.703,1.111c-1.091,0-1.997-0.37-2.718-1.111C373.63,932.739,373.275,931.804,373.275,930.672z
			 M374.656,930.672c0,0.791,0.23,1.432,0.69,1.922s1.031,0.736,1.712,0.736s1.251-0.246,1.711-0.736s0.691-1.131,0.691-1.922
			c0-0.78-0.23-1.416-0.691-1.906c-0.471-0.501-1.041-0.751-1.711-0.751c-0.671,0-1.241,0.25-1.712,0.751
			C374.886,929.256,374.656,929.892,374.656,930.672z"/>
		<path style="fill:#606060;" d="M384.896,926.753c1.021,0,1.827,0.273,2.417,0.818c0.59,0.546,0.886,1.294,0.886,2.245v4.534
			h-1.321v-1.021h-0.06c-0.57,0.841-1.331,1.261-2.282,1.261c-0.811,0-1.489-0.24-2.034-0.721c-0.546-0.48-0.818-1.081-0.818-1.802
			c0-0.761,0.288-1.366,0.863-1.816c0.576-0.451,1.344-0.676,2.305-0.676c0.821,0,1.496,0.15,2.027,0.45v-0.315
			c0-0.48-0.19-0.888-0.57-1.224c-0.381-0.335-0.826-0.503-1.336-0.503c-0.771,0-1.381,0.325-1.832,0.977l-1.216-0.767
			C382.594,927.233,383.585,926.753,384.896,926.753z M383.109,932.099c0,0.36,0.152,0.66,0.458,0.9
			c0.305,0.24,0.663,0.36,1.074,0.36c0.58,0,1.098-0.215,1.554-0.646c0.456-0.43,0.683-0.936,0.683-1.517
			c-0.43-0.34-1.031-0.51-1.802-0.51c-0.561,0-1.028,0.135-1.404,0.405C383.297,931.362,383.109,931.698,383.109,932.099z"/>
		<path style="fill:#606060;" d="M392.764,934.591c-0.961,0-1.787-0.38-2.478-1.141c-0.681-0.771-1.021-1.697-1.021-2.778
			s0.34-2.007,1.021-2.777c0.69-0.761,1.517-1.142,2.478-1.142c0.541,0,1.033,0.115,1.479,0.346s0.789,0.535,1.029,0.916h0.06
			l-0.06-1.021v-3.393h1.381v10.75h-1.321v-1.021h-0.06c-0.24,0.38-0.583,0.686-1.029,0.915
			C393.797,934.476,393.305,934.591,392.764,934.591z M392.989,933.33c0.681,0,1.236-0.246,1.667-0.736
			c0.45-0.49,0.676-1.131,0.676-1.922c0-0.771-0.226-1.406-0.676-1.906c-0.44-0.501-0.996-0.751-1.667-0.751
			c-0.661,0-1.216,0.25-1.667,0.751c-0.451,0.5-0.676,1.136-0.676,1.906c0,0.781,0.225,1.417,0.676,1.907
			C391.773,933.079,392.329,933.33,392.989,933.33z"/>
		<path style="fill:#606060;" d="M401.876,934.351v-10.75h3.784c0.51,0,0.988,0.082,1.434,0.247
			c0.445,0.166,0.833,0.398,1.164,0.698c0.331,0.301,0.591,0.658,0.781,1.074c0.19,0.415,0.286,0.873,0.286,1.373
			c0,0.511-0.095,0.974-0.286,1.39c-0.19,0.415-0.45,0.772-0.781,1.073c-0.33,0.3-0.718,0.533-1.164,0.698s-0.923,0.247-1.434,0.247
			h-1.757v3.949H401.876z M405.689,928.48c0.531,0,0.931-0.15,1.201-0.451c0.271-0.3,0.405-0.646,0.405-1.036
			c0-0.189-0.032-0.375-0.097-0.555c-0.065-0.181-0.166-0.338-0.3-0.474c-0.135-0.135-0.303-0.242-0.503-0.322
			s-0.435-0.12-0.706-0.12h-1.787v2.958H405.689z"/>
		<path style="fill:#606060;" d="M410.764,923.601h2.357l4.324,7.207h0.12l-0.12-2.072v-5.135h2.012v10.75h-2.132l-4.564-7.612
			h-0.12l0.12,2.072v5.54h-1.997V923.601z"/>
		<path style="fill:#606060;" d="M426.574,928.45h5.27c0.03,0.12,0.055,0.265,0.075,0.436c0.02,0.17,0.03,0.34,0.03,0.51
			c0,0.691-0.105,1.342-0.315,1.952c-0.21,0.61-0.541,1.156-0.991,1.637c-0.48,0.511-1.056,0.906-1.727,1.187
			c-0.671,0.279-1.437,0.42-2.297,0.42c-0.781,0-1.517-0.141-2.207-0.42c-0.691-0.28-1.292-0.671-1.802-1.172
			c-0.511-0.5-0.916-1.093-1.216-1.779c-0.3-0.686-0.45-1.434-0.45-2.244s0.15-1.559,0.45-2.245c0.3-0.686,0.706-1.278,1.216-1.779
			c0.51-0.5,1.111-0.891,1.802-1.171c0.69-0.28,1.426-0.42,2.207-0.42c0.871,0,1.649,0.15,2.334,0.45
			c0.686,0.301,1.274,0.716,1.764,1.246l-1.396,1.366c-0.351-0.37-0.741-0.653-1.171-0.848c-0.43-0.195-0.946-0.293-1.546-0.293
			c-0.49,0-0.956,0.088-1.396,0.263c-0.441,0.175-0.826,0.423-1.156,0.743c-0.331,0.32-0.593,0.708-0.789,1.163
			c-0.195,0.456-0.292,0.964-0.292,1.524s0.098,1.068,0.292,1.523c0.195,0.456,0.46,0.844,0.796,1.164s0.723,0.568,1.164,0.743
			s0.911,0.263,1.412,0.263c0.57,0,1.053-0.083,1.449-0.248s0.733-0.377,1.014-0.638c0.2-0.181,0.373-0.408,0.518-0.684
			c0.145-0.274,0.258-0.583,0.338-0.923h-3.378V928.45z"/>
		<path style="fill:#606060;" d="M436.934,934.351v-10.75h3.784c0.51,0,0.988,0.082,1.434,0.247
			c0.445,0.166,0.833,0.398,1.164,0.698c0.331,0.301,0.591,0.658,0.781,1.074c0.19,0.415,0.286,0.873,0.286,1.373
			c0,0.511-0.095,0.974-0.286,1.39c-0.19,0.415-0.45,0.772-0.781,1.073c-0.33,0.3-0.718,0.533-1.164,0.698s-0.923,0.247-1.434,0.247
			h-1.757v3.949H436.934z M440.747,928.48c0.531,0,0.931-0.15,1.201-0.451c0.271-0.3,0.405-0.646,0.405-1.036
			c0-0.189-0.032-0.375-0.097-0.555c-0.065-0.181-0.166-0.338-0.3-0.474c-0.135-0.135-0.303-0.242-0.503-0.322
			s-0.435-0.12-0.706-0.12h-1.787v2.958H440.747z"/>
		<path style="fill:#606060;" d="M449.11,934.591c-0.46,0-0.901-0.065-1.321-0.195s-0.806-0.325-1.156-0.585
			c-0.35-0.261-0.655-0.578-0.916-0.954c-0.261-0.375-0.466-0.812-0.616-1.313l1.907-0.751c0.14,0.541,0.385,0.989,0.736,1.344
			c0.35,0.355,0.811,0.533,1.381,0.533c0.21,0,0.413-0.027,0.608-0.083c0.195-0.055,0.37-0.135,0.525-0.24
			c0.155-0.104,0.278-0.237,0.368-0.397c0.09-0.16,0.135-0.346,0.135-0.556c0-0.2-0.035-0.38-0.105-0.54s-0.188-0.311-0.353-0.451
			c-0.166-0.14-0.381-0.274-0.646-0.405c-0.265-0.13-0.593-0.265-0.983-0.405l-0.661-0.24c-0.29-0.1-0.583-0.234-0.878-0.405
			c-0.295-0.17-0.563-0.375-0.804-0.615s-0.438-0.523-0.593-0.849c-0.155-0.325-0.233-0.693-0.233-1.104
			c0-0.42,0.083-0.813,0.248-1.179c0.165-0.365,0.4-0.686,0.706-0.961c0.305-0.275,0.67-0.49,1.096-0.646
			c0.426-0.155,0.898-0.232,1.419-0.232c0.541,0,1.008,0.072,1.404,0.218c0.396,0.145,0.73,0.33,1.006,0.556
			c0.275,0.225,0.498,0.473,0.668,0.743c0.17,0.27,0.295,0.525,0.375,0.766l-1.787,0.75c-0.1-0.3-0.283-0.57-0.548-0.811
			s-0.628-0.36-1.088-0.36c-0.441,0-0.806,0.103-1.096,0.308c-0.291,0.206-0.436,0.474-0.436,0.804c0,0.32,0.14,0.593,0.42,0.818
			c0.28,0.225,0.726,0.442,1.336,0.653l0.676,0.225c0.43,0.15,0.823,0.323,1.179,0.519c0.355,0.195,0.661,0.428,0.916,0.698
			c0.255,0.27,0.451,0.578,0.585,0.923c0.135,0.346,0.203,0.743,0.203,1.193c0,0.562-0.113,1.044-0.338,1.449
			c-0.226,0.405-0.513,0.738-0.863,0.999c-0.351,0.26-0.746,0.455-1.187,0.585S449.53,934.591,449.11,934.591z"/>
		<path style="fill:#606060;" d="M454.455,923.601h3.633c0.851,0,1.617,0.13,2.297,0.391c0.681,0.26,1.261,0.628,1.742,1.104
			c0.48,0.475,0.848,1.043,1.104,1.704c0.255,0.66,0.383,1.386,0.383,2.177c0,0.801-0.127,1.531-0.383,2.192
			c-0.255,0.66-0.623,1.226-1.104,1.696s-1.061,0.836-1.742,1.096c-0.681,0.261-1.447,0.391-2.297,0.391h-3.633V923.601z
			 M457.999,932.429c0.59,0,1.111-0.083,1.562-0.248c0.45-0.165,0.826-0.397,1.126-0.698c0.3-0.3,0.525-0.662,0.676-1.088
			c0.15-0.426,0.225-0.898,0.225-1.419s-0.075-0.993-0.225-1.419c-0.15-0.426-0.375-0.788-0.676-1.089
			c-0.3-0.3-0.676-0.532-1.126-0.698c-0.451-0.165-0.971-0.247-1.562-0.247h-1.517v6.906H457.999z"/>
		<path style="fill:#606060;" d="M471.391,934.591c-0.46,0-0.901-0.065-1.321-0.195s-0.806-0.325-1.156-0.585
			c-0.35-0.261-0.655-0.578-0.916-0.954c-0.261-0.375-0.466-0.812-0.616-1.313l1.907-0.751c0.14,0.541,0.385,0.989,0.736,1.344
			c0.35,0.355,0.811,0.533,1.381,0.533c0.21,0,0.413-0.027,0.608-0.083c0.195-0.055,0.37-0.135,0.525-0.24
			c0.155-0.104,0.278-0.237,0.368-0.397c0.09-0.16,0.135-0.346,0.135-0.556c0-0.2-0.035-0.38-0.105-0.54s-0.188-0.311-0.353-0.451
			c-0.166-0.14-0.381-0.274-0.646-0.405c-0.265-0.13-0.593-0.265-0.983-0.405l-0.661-0.24c-0.29-0.1-0.583-0.234-0.878-0.405
			c-0.295-0.17-0.563-0.375-0.804-0.615s-0.438-0.523-0.593-0.849c-0.155-0.325-0.233-0.693-0.233-1.104
			c0-0.42,0.083-0.813,0.248-1.179c0.165-0.365,0.4-0.686,0.706-0.961c0.305-0.275,0.67-0.49,1.096-0.646
			c0.426-0.155,0.898-0.232,1.419-0.232c0.541,0,1.008,0.072,1.404,0.218c0.396,0.145,0.73,0.33,1.006,0.556
			c0.275,0.225,0.498,0.473,0.668,0.743c0.17,0.27,0.295,0.525,0.375,0.766l-1.787,0.75c-0.1-0.3-0.283-0.57-0.548-0.811
			s-0.628-0.36-1.088-0.36c-0.441,0-0.806,0.103-1.096,0.308c-0.291,0.206-0.436,0.474-0.436,0.804c0,0.32,0.14,0.593,0.42,0.818
			c0.28,0.225,0.726,0.442,1.336,0.653l0.676,0.225c0.43,0.15,0.823,0.323,1.179,0.519c0.355,0.195,0.661,0.428,0.916,0.698
			c0.255,0.27,0.451,0.578,0.585,0.923c0.135,0.346,0.203,0.743,0.203,1.193c0,0.562-0.113,1.044-0.338,1.449
			c-0.226,0.405-0.513,0.738-0.863,0.999c-0.351,0.26-0.746,0.455-1.187,0.585S471.811,934.591,471.391,934.591z"/>
		<path style="fill:#606060;" d="M475.685,923.601h2.192l2.222,6.471l0.391,1.382h0.12l0.42-1.382l2.312-6.471h2.192l-3.918,10.75
			h-2.132L475.685,923.601z"/>
		<path style="fill:#606060;" d="M491.45,928.45h5.27c0.03,0.12,0.055,0.265,0.075,0.436c0.02,0.17,0.03,0.34,0.03,0.51
			c0,0.691-0.105,1.342-0.315,1.952c-0.21,0.61-0.541,1.156-0.991,1.637c-0.48,0.511-1.056,0.906-1.727,1.187
			c-0.671,0.279-1.437,0.42-2.297,0.42c-0.781,0-1.517-0.141-2.207-0.42c-0.691-0.28-1.292-0.671-1.802-1.172
			c-0.511-0.5-0.916-1.093-1.216-1.779c-0.3-0.686-0.45-1.434-0.45-2.244s0.15-1.559,0.45-2.245c0.3-0.686,0.706-1.278,1.216-1.779
			c0.51-0.5,1.111-0.891,1.802-1.171c0.69-0.28,1.426-0.42,2.207-0.42c0.871,0,1.649,0.15,2.334,0.45
			c0.686,0.301,1.274,0.716,1.764,1.246l-1.396,1.366c-0.351-0.37-0.741-0.653-1.171-0.848c-0.43-0.195-0.946-0.293-1.546-0.293
			c-0.49,0-0.956,0.088-1.396,0.263c-0.441,0.175-0.826,0.423-1.156,0.743c-0.331,0.32-0.593,0.708-0.789,1.163
			c-0.195,0.456-0.292,0.964-0.292,1.524s0.098,1.068,0.292,1.523c0.195,0.456,0.46,0.844,0.796,1.164s0.723,0.568,1.164,0.743
			s0.911,0.263,1.412,0.263c0.57,0,1.053-0.083,1.449-0.248s0.733-0.377,1.014-0.638c0.2-0.181,0.373-0.408,0.518-0.684
			c0.145-0.274,0.258-0.583,0.338-0.923h-3.378V928.45z"/>
		<path style="fill:#606060;" d="M503.837,925.522v2.492h4.309v1.922h-4.309v2.492h4.789v1.922h-6.816v-10.75h6.816v1.922H503.837z"
			/>
		<path style="fill:#606060;" d="M510.487,934.351v-10.75h3.783c0.511,0,0.988,0.082,1.435,0.247
			c0.445,0.166,0.833,0.398,1.163,0.698c0.33,0.301,0.591,0.658,0.781,1.074c0.189,0.415,0.285,0.873,0.285,1.373
			c0,0.511-0.096,0.974-0.285,1.39c-0.19,0.415-0.451,0.772-0.781,1.073c-0.33,0.3-0.718,0.533-1.163,0.698
			c-0.446,0.165-0.924,0.247-1.435,0.247h-1.756v3.949H510.487z M514.301,928.48c0.53,0,0.931-0.15,1.201-0.451
			c0.271-0.3,0.405-0.646,0.405-1.036c0-0.189-0.032-0.375-0.098-0.555c-0.065-0.181-0.165-0.338-0.3-0.474
			c-0.136-0.135-0.303-0.242-0.503-0.322s-0.436-0.12-0.706-0.12h-1.786v2.958H514.301z"/>
		<path style="fill:#606060;" d="M522.664,934.591c-0.461,0-0.9-0.065-1.321-0.195c-0.42-0.13-0.806-0.325-1.156-0.585
			c-0.351-0.261-0.655-0.578-0.916-0.954c-0.26-0.375-0.465-0.812-0.615-1.313l1.907-0.751c0.14,0.541,0.385,0.989,0.735,1.344
			c0.351,0.355,0.811,0.533,1.381,0.533c0.211,0,0.413-0.027,0.608-0.083c0.195-0.055,0.37-0.135,0.525-0.24
			c0.155-0.104,0.278-0.237,0.368-0.397s0.135-0.346,0.135-0.556c0-0.2-0.035-0.38-0.104-0.54c-0.07-0.16-0.188-0.311-0.354-0.451
			c-0.165-0.14-0.38-0.274-0.646-0.405c-0.266-0.13-0.593-0.265-0.983-0.405l-0.66-0.24c-0.291-0.1-0.584-0.234-0.879-0.405
			c-0.295-0.17-0.562-0.375-0.803-0.615s-0.438-0.523-0.594-0.849s-0.232-0.693-0.232-1.104c0-0.42,0.083-0.813,0.248-1.179
			s0.4-0.686,0.705-0.961c0.306-0.275,0.671-0.49,1.097-0.646c0.425-0.155,0.898-0.232,1.419-0.232c0.54,0,1.008,0.072,1.403,0.218
			c0.396,0.145,0.73,0.33,1.006,0.556c0.275,0.225,0.498,0.473,0.668,0.743c0.171,0.27,0.296,0.525,0.376,0.766l-1.787,0.75
			c-0.1-0.3-0.282-0.57-0.548-0.811s-0.628-0.36-1.089-0.36c-0.44,0-0.806,0.103-1.096,0.308c-0.29,0.206-0.436,0.474-0.436,0.804
			c0,0.32,0.141,0.593,0.421,0.818c0.28,0.225,0.726,0.442,1.336,0.653l0.676,0.225c0.43,0.15,0.823,0.323,1.179,0.519
			c0.354,0.195,0.66,0.428,0.916,0.698c0.255,0.27,0.45,0.578,0.585,0.923c0.136,0.346,0.203,0.743,0.203,1.193
			c0,0.562-0.113,1.044-0.338,1.449c-0.226,0.405-0.514,0.738-0.863,0.999c-0.351,0.26-0.746,0.455-1.187,0.585
			S523.085,934.591,522.664,934.591z"/>
		<path style="fill:#606060;" d="M535.996,929.741v4.609h-1.381v-10.75h6.276v1.321h-4.896v3.528h4.415v1.291H535.996z"/>
		<path style="fill:#606060;" d="M541.341,930.672c0-1.131,0.355-2.066,1.066-2.808c0.721-0.74,1.627-1.111,2.718-1.111
			s1.991,0.371,2.702,1.111c0.721,0.741,1.081,1.677,1.081,2.808c0,1.142-0.36,2.077-1.081,2.808
			c-0.711,0.741-1.611,1.111-2.702,1.111s-1.997-0.37-2.718-1.111C541.696,932.739,541.341,931.804,541.341,930.672z
			 M542.723,930.672c0,0.791,0.23,1.432,0.69,1.922c0.461,0.49,1.031,0.736,1.712,0.736s1.251-0.246,1.712-0.736
			c0.46-0.49,0.69-1.131,0.69-1.922c0-0.78-0.23-1.416-0.69-1.906c-0.471-0.501-1.042-0.751-1.712-0.751
			c-0.671,0-1.241,0.25-1.712,0.751C542.953,929.256,542.723,929.892,542.723,930.672z"/>
		<path style="fill:#606060;" d="M551.4,934.351h-1.381v-7.357h1.321v1.201h0.06c0.141-0.39,0.429-0.723,0.863-0.998
			c0.436-0.275,0.864-0.413,1.284-0.413c0.4,0,0.74,0.061,1.021,0.181l-0.42,1.336c-0.17-0.07-0.44-0.105-0.811-0.105
			c-0.521,0-0.974,0.211-1.359,0.631c-0.385,0.421-0.578,0.911-0.578,1.472V934.351z"/>
		<path style="fill:#606060;" d="M556.851,934.351h-1.381v-7.357h1.321v1.021h0.06c0.211-0.36,0.533-0.661,0.969-0.901
			s0.868-0.36,1.299-0.36c0.54,0,1.016,0.126,1.427,0.376c0.41,0.25,0.71,0.596,0.9,1.036c0.61-0.941,1.456-1.412,2.537-1.412
			c0.851,0,1.507,0.261,1.967,0.781c0.461,0.521,0.691,1.261,0.691,2.222v4.595h-1.382v-4.384c0-0.691-0.125-1.188-0.375-1.494
			s-0.671-0.458-1.262-0.458c-0.53,0-0.976,0.226-1.336,0.676s-0.54,0.98-0.54,1.591v4.069h-1.382v-4.384
			c0-0.691-0.125-1.188-0.375-1.494c-0.251-0.306-0.671-0.458-1.262-0.458c-0.53,0-0.976,0.226-1.336,0.676s-0.541,0.98-0.541,1.591
			V934.351z"/>
		<path style="fill:#606060;" d="M570.979,926.753c1.021,0,1.826,0.273,2.417,0.818c0.591,0.546,0.886,1.294,0.886,2.245v4.534
			h-1.321v-1.021h-0.06c-0.571,0.841-1.332,1.261-2.282,1.261c-0.812,0-1.489-0.24-2.035-0.721c-0.545-0.48-0.818-1.081-0.818-1.802
			c0-0.761,0.288-1.366,0.864-1.816c0.575-0.451,1.344-0.676,2.305-0.676c0.82,0,1.496,0.15,2.026,0.45v-0.315
			c0-0.48-0.19-0.888-0.57-1.224c-0.381-0.335-0.826-0.503-1.336-0.503c-0.771,0-1.382,0.325-1.832,0.977l-1.217-0.767
			C568.677,927.233,569.668,926.753,570.979,926.753z M569.192,932.099c0,0.36,0.152,0.66,0.458,0.9s0.663,0.36,1.073,0.36
			c0.581,0,1.099-0.215,1.555-0.646c0.455-0.43,0.683-0.936,0.683-1.517c-0.431-0.34-1.031-0.51-1.802-0.51
			c-0.561,0-1.028,0.135-1.403,0.405C569.38,931.362,569.192,931.698,569.192,932.099z"/>
		<path style="fill:#606060;" d="M578.607,934.471c-0.601,0-1.099-0.186-1.494-0.556s-0.599-0.886-0.608-1.546v-4.114h-1.291v-1.262
			h1.291v-2.252h1.382v2.252h1.802v1.262h-1.802v3.663c0,0.491,0.095,0.824,0.285,0.999c0.189,0.175,0.405,0.263,0.646,0.263
			c0.11,0,0.218-0.013,0.322-0.038c0.105-0.024,0.203-0.058,0.293-0.098l0.436,1.231
			C579.508,934.405,579.088,934.471,578.607,934.471z"/>
		<path style="fill:#606060;" d="M586.788,932.309c0,0.641-0.28,1.182-0.841,1.622c-0.561,0.439-1.266,0.66-2.116,0.66
			c-0.741,0-1.392-0.192-1.952-0.578c-0.561-0.385-0.961-0.894-1.201-1.523l1.231-0.526c0.18,0.441,0.442,0.784,0.788,1.029
			c0.345,0.245,0.723,0.367,1.134,0.367c0.44,0,0.808-0.095,1.104-0.285c0.295-0.189,0.442-0.415,0.442-0.676
			c0-0.47-0.36-0.815-1.081-1.036l-1.261-0.314c-1.432-0.36-2.147-1.052-2.147-2.072c0-0.671,0.272-1.209,0.818-1.614
			s1.244-0.608,2.095-0.608c0.65,0,1.238,0.155,1.764,0.466c0.526,0.311,0.894,0.726,1.104,1.246l-1.23,0.511
			c-0.141-0.311-0.368-0.553-0.684-0.729c-0.315-0.175-0.668-0.263-1.059-0.263c-0.36,0-0.683,0.09-0.968,0.271
			c-0.285,0.18-0.429,0.4-0.429,0.66c0,0.421,0.396,0.721,1.187,0.901l1.111,0.285C586.058,930.462,586.788,931.197,586.788,932.309
			z"/>
		<path style="fill:#606060;" d="M592.913,934.351h-1.381v-10.75h1.381V934.351z"/>
		<path style="fill:#606060;" d="M594.835,926.993h1.321v1.021h0.06c0.211-0.36,0.533-0.661,0.969-0.901s0.889-0.36,1.359-0.36
			c0.9,0,1.594,0.258,2.079,0.773s0.729,1.249,0.729,2.2v4.624h-1.382v-4.534c-0.03-1.201-0.636-1.802-1.816-1.802
			c-0.551,0-1.012,0.223-1.382,0.668s-0.556,0.979-0.556,1.599v4.069h-1.381V926.993z"/>
		<path style="fill:#606060;" d="M612.702,931.482c0,0.941-0.346,1.697-1.036,2.268c-0.701,0.561-1.552,0.841-2.553,0.841
			c-0.891,0-1.677-0.26-2.357-0.78s-1.151-1.231-1.411-2.133l1.321-0.54c0.09,0.32,0.215,0.61,0.375,0.871
			c0.16,0.26,0.348,0.482,0.563,0.668c0.215,0.186,0.453,0.33,0.713,0.436c0.261,0.104,0.535,0.157,0.826,0.157
			c0.631,0,1.146-0.162,1.546-0.488c0.4-0.325,0.601-0.758,0.601-1.299c0-0.45-0.165-0.835-0.495-1.155
			c-0.311-0.311-0.891-0.61-1.741-0.901c-0.861-0.31-1.396-0.521-1.607-0.631c-1.141-0.58-1.711-1.436-1.711-2.567
			c0-0.79,0.315-1.466,0.945-2.026c0.641-0.561,1.427-0.841,2.357-0.841c0.82,0,1.531,0.21,2.132,0.631
			c0.601,0.41,1.001,0.926,1.201,1.546l-1.291,0.541c-0.12-0.4-0.357-0.733-0.713-0.999c-0.355-0.265-0.788-0.397-1.299-0.397
			c-0.541,0-0.996,0.149-1.366,0.45c-0.371,0.28-0.556,0.646-0.556,1.096c0,0.371,0.145,0.691,0.436,0.961
			c0.32,0.271,1.016,0.591,2.087,0.961c1.091,0.371,1.869,0.823,2.335,1.359C612.469,930.044,612.702,930.702,612.702,931.482z"/>
		<path style="fill:#606060;" d="M615.915,924.456c0,0.271-0.096,0.501-0.286,0.69c-0.189,0.19-0.42,0.285-0.69,0.285
			s-0.5-0.095-0.69-0.285c-0.19-0.189-0.285-0.42-0.285-0.69s0.095-0.5,0.285-0.69s0.42-0.285,0.69-0.285s0.501,0.095,0.69,0.285
			C615.819,923.956,615.915,924.186,615.915,924.456z M615.629,926.993v7.357h-1.381v-7.357H615.629z"/>
		<path style="fill:#606060;" d="M617.431,926.993h1.321v1.021h0.06c0.211-0.36,0.533-0.661,0.969-0.901s0.889-0.36,1.359-0.36
			c0.9,0,1.594,0.258,2.079,0.773s0.729,1.249,0.729,2.2v4.624h-1.382v-4.534c-0.03-1.201-0.636-1.802-1.816-1.802
			c-0.551,0-1.012,0.223-1.382,0.668s-0.556,0.979-0.556,1.599v4.069h-1.381V926.993z"/>
		<path style="fill:#606060;" d="M628.751,937.834c-0.41,0-0.796-0.053-1.156-0.158c-0.36-0.104-0.688-0.252-0.983-0.442
			c-0.295-0.19-0.548-0.416-0.758-0.676c-0.21-0.261-0.37-0.551-0.48-0.871l1.307-0.54c0.149,0.43,0.41,0.775,0.78,1.036
			c0.37,0.26,0.801,0.39,1.291,0.39c0.751,0,1.337-0.225,1.757-0.675c0.421-0.451,0.631-1.071,0.631-1.862v-0.705h-0.061
			c-0.26,0.39-0.613,0.697-1.059,0.923s-0.928,0.338-1.448,0.338c-0.961,0-1.787-0.375-2.478-1.126
			c-0.681-0.771-1.021-1.701-1.021-2.793c0-1.091,0.341-2.017,1.021-2.777c0.69-0.761,1.517-1.142,2.478-1.142
			c0.521,0,1.003,0.113,1.448,0.338c0.445,0.226,0.799,0.533,1.059,0.924h0.061v-1.021h1.321v7.042c0,1.181-0.336,2.107-1.006,2.777
			C630.773,937.493,629.872,937.834,628.751,937.834z M628.796,933.33c0.681,0,1.236-0.246,1.667-0.736
			c0.45-0.49,0.676-1.131,0.676-1.922c0-0.771-0.226-1.406-0.676-1.906c-0.44-0.501-0.996-0.751-1.667-0.751
			c-0.66,0-1.216,0.25-1.666,0.751c-0.45,0.5-0.676,1.136-0.676,1.906c0,0.781,0.226,1.417,0.676,1.907
			C627.58,933.079,628.136,933.33,628.796,933.33z"/>
		<path style="fill:#606060;" d="M635.522,923.601v10.75h-1.381v-10.75H635.522z"/>
		<path style="fill:#606060;" d="M640.433,934.591c-1.081,0-1.972-0.37-2.672-1.111c-0.701-0.74-1.052-1.676-1.052-2.808
			c0-1.121,0.341-2.054,1.021-2.8s1.552-1.119,2.612-1.119c1.091,0,1.96,0.354,2.605,1.059c0.646,0.706,0.968,1.694,0.968,2.966
			l-0.015,0.15h-5.78c0.02,0.721,0.26,1.301,0.721,1.741c0.46,0.44,1.011,0.661,1.651,0.661c0.881,0,1.571-0.44,2.072-1.321
			l1.23,0.601c-0.33,0.62-0.788,1.105-1.373,1.456C641.837,934.416,641.174,934.591,640.433,934.591z M638.226,929.786h4.22
			c-0.04-0.511-0.248-0.934-0.623-1.269c-0.376-0.335-0.879-0.503-1.51-0.503c-0.521,0-0.968,0.16-1.344,0.48
			C638.594,928.815,638.346,929.246,638.226,929.786z"/>
		<path style="fill:#606060;" d="M655.507,934.351h-7.387v-1.441l5.721-7.987h-5.48v-1.321h7.087v1.441l-5.721,7.987h5.78V934.351z"
			/>
		<path style="fill:#606060;" d="M658.735,924.456c0,0.271-0.096,0.501-0.286,0.69c-0.189,0.19-0.42,0.285-0.69,0.285
			s-0.5-0.095-0.69-0.285c-0.19-0.189-0.285-0.42-0.285-0.69s0.095-0.5,0.285-0.69s0.42-0.285,0.69-0.285s0.501,0.095,0.69,0.285
			C658.64,923.956,658.735,924.186,658.735,924.456z M658.449,926.993v7.357h-1.381v-7.357H658.449z"/>
		<path style="fill:#606060;" d="M664.08,934.591c-0.541,0-1.034-0.115-1.479-0.346c-0.445-0.229-0.788-0.535-1.028-0.915h-0.061
			l0.061,1.021v3.243h-1.382v-10.601h1.321v1.021h0.061c0.24-0.381,0.583-0.686,1.028-0.916s0.938-0.346,1.479-0.346
			c0.971,0,1.791,0.381,2.462,1.142c0.69,0.771,1.036,1.696,1.036,2.777c0,1.092-0.346,2.018-1.036,2.778
			C665.871,934.211,665.051,934.591,664.08,934.591z M663.854,933.33c0.66,0,1.216-0.251,1.666-0.751
			c0.451-0.49,0.676-1.126,0.676-1.907c0-0.771-0.225-1.406-0.676-1.906c-0.45-0.501-1.006-0.751-1.666-0.751
			c-0.671,0-1.231,0.25-1.682,0.751c-0.44,0.5-0.661,1.136-0.661,1.906c0,0.781,0.221,1.422,0.661,1.922
			C662.623,933.084,663.184,933.33,663.854,933.33z"/>
	</g>
</g>
<g>
</g>
<g>
	<path style="fill:#DE1E23;" d="M387.086,456.906c-8.529-0.062-16.765,1.728-24.823,4.321c-23.933,7.703-45.43,19.743-64.215,36.501
		c-5.241,4.675-9.977,9.832-13.801,15.761c-2.123,3.291-3.881,6.747-4.648,10.641c-1.225,6.215,1.31,10.973,7.19,13.341
		c2.77,1.115,5.678,1.611,8.653,1.744c9.735,0.438,19.057-1.711,28.269-4.522c2.135-0.652,4.234-1.423,6.351-2.135
		c0.808-0.271,1.827-0.787,2.256,0.283c0.386,0.963-0.557,1.561-1.333,1.943c-5.499,2.7-11.057,5.272-16.711,7.633
		c-10.721,4.476-21.63,8.382-33.01,10.85c-5.44,1.18-10.925,2.03-16.514,1.94c-2.754-0.045-5.476-0.379-8.086-1.297
		c-5.154-1.813-7.342-5.542-6.481-10.946c0.532-3.34,1.994-6.312,3.696-9.175c2.967-4.99,6.659-9.426,10.626-13.638
		c8.946-9.497,18.981-17.741,29.541-25.351c20.909-15.067,43.191-27.719,66.983-37.663c10.987-4.592,22.209-8.492,33.924-10.818
		c4.894-0.971,9.823-1.64,14.829-1.516c2.46,0.061,4.889,0.38,7.242,1.142c5.871,1.903,8.239,6.113,6.802,12.086
		c-0.891,3.703-2.67,6.995-4.742,10.142c-4.073,6.187-9.083,11.576-14.38,16.711c-1.71,1.658-3.491,3.243-5.233,4.868
		c-0.532,0.496-1.079,0.969-1.797,1.165c-0.878,0.24-1.457-0.273-1.244-1.151c0.225-0.929,0.811-1.68,1.389-2.424
		c1.951-2.511,3.776-5.107,5.269-7.921c1.429-2.691,2.529-5.495,2.998-8.53c0.752-4.872-1.261-9.047-5.566-11.462
		c-2.829-1.587-5.926-2.227-9.105-2.502C389.982,456.803,388.53,456.906,387.086,456.906z"/>
	<path style="fill:#3AA335;" d="M697.156,503.096c3.354-4.905,7.794-6.718,13.068-6.725c5.352-0.007,9.515,2.079,11.979,7.364
		c0.491-0.601,0.817-1.027,1.171-1.43c4.577-5.218,10.307-6.951,16.997-5.413c4.127,0.949,6.782,3.668,8.207,7.605
		c0.79,2.184,1.282,4.457,1.302,6.772c0.076,8.735,0.06,17.471,0.12,26.207c0.007,1.031-0.302,1.377-1.349,1.364
		c-3.972-0.05-7.944-0.005-11.917-0.027c-1.444-0.008-1.471-0.047-1.475-1.638c-0.013-5.343-0.005-10.686-0.005-16.028
		c0-2.094,0.004-4.188-0.005-6.281c-0.003-0.722-0.003-1.446-0.065-2.164c-0.251-2.919-1.288-4.374-3.451-4.893
		c-2.462-0.591-5.022,0.44-6.374,2.62c-1.059,1.707-1.405,3.614-1.408,5.594c-0.008,4.982-0.01,9.963-0.013,14.945
		c-0.001,2.166-0.044,4.333,0.018,6.497c0.03,1.028-0.299,1.387-1.349,1.374c-3.972-0.048-7.944-0.005-11.917-0.026
		c-1.449-0.008-1.477-0.045-1.48-1.63c-0.012-6.426-0.004-12.851-0.006-19.277c0-1.3,0.006-2.599-0.019-3.899
		c-0.013-0.648-0.035-1.304-0.147-1.94c-0.472-2.681-1.48-3.95-3.598-4.296c-2.394-0.392-4.448,0.306-5.881,2.351
		c-1.204,1.717-1.573,3.702-1.586,5.755c-0.025,4.115-0.018,8.231-0.021,12.346c-0.002,2.96,0.01,5.92-0.005,8.88
		c-0.008,1.678-0.026,1.705-1.61,1.712c-3.828,0.016-7.656,0.016-11.484,0c-1.62-0.007-1.645-0.033-1.647-1.683
		c-0.01-8.086-0.002-16.173-0.005-24.259c-0.002-4.62,0.034-9.239-0.445-13.846c-0.148-1.42-0.064-1.469,1.335-1.478
		c3.683-0.023,7.367,0.016,11.05-0.023c0.999-0.011,1.421,0.324,1.477,1.348C696.685,500.094,696.918,501.304,697.156,503.096z"/>
	<path style="fill:#3AA335;" d="M383.399,497.289c-2.799-1.784-5.457-3.196-8.352-4.147c-3.412-1.121-6.892-1.508-10.458-1.183
		c-1.755,0.16-3.371,0.724-4.834,1.726c-2.413,1.652-3.387,5.844,0.596,7.674c2.977,1.367,6.151,2.036,9.311,2.761
		c3.377,0.774,6.711,1.678,9.91,3.033c1.868,0.792,3.628,1.77,5.232,3.018c3.156,2.454,4.774,5.726,5.015,9.673
		c0.506,8.268-3.204,14.128-10.877,17.341c-3.371,1.411-6.915,2.047-10.52,2.298c-7.523,0.524-14.825-0.532-21.817-3.419
		c-1.326-0.548-2.559-1.322-3.839-1.982c-0.89-0.459-1.246-0.967-0.727-2.047c1.311-2.728,2.46-5.532,3.71-8.29
		c0.563-1.243,0.614-1.248,1.891-0.527c5.781,3.265,11.959,4.948,18.626,4.719c1.669-0.057,3.297-0.32,4.891-0.819
		c0.835-0.262,1.614-0.631,2.287-1.192c2.031-1.692,2.09-4.221,0.15-6.011c-1.036-0.956-2.323-1.44-3.619-1.884
		c-2.871-0.983-5.857-1.522-8.806-2.201c-2.461-0.567-4.892-1.234-7.245-2.161c-0.603-0.237-1.193-0.509-1.793-0.753
		c-12.474-5.061-10.895-19.444-4.846-25.547c3.542-3.573,7.818-5.684,12.668-6.553c7.934-1.422,15.662-0.497,23.105,2.623
		c1.533,0.643,2.964,1.484,4.303,2.48c0.54,0.402,0.687,0.796,0.388,1.462C386.303,490.594,384.91,493.831,383.399,497.289z"/>
	<path style="fill:#3AA335;" d="M523.638,537.389c-0.042-0.282-0.007-0.579-0.007-0.868v-36.56c0-0.437-0.028-0.868,0-1.298
		c0.071-0.861-0.353-1.129-1.157-1.129c-4.043,0.021-8.085,0.035-12.121-0.007c-1.094-0.014-1.355,0.466-1.305,1.432
		c0.056,1.03,0.014,2.067,0.014,3.394c-0.487-0.416-0.649-0.536-0.783-0.684c-4.007-4.48-9.031-6.018-14.851-5.009
		c-6.752,1.164-10.992,5.397-13.461,11.542c-2.131,5.306-2.321,10.837-1.143,16.375c1.072,5.03,3.528,9.256,7.923,12.191
		c5.305,3.542,15.451,4.727,22.309-3.09c0,1.482,0.056,2.561-0.014,3.633c-0.063,1.072,0.233,1.552,1.425,1.531
		c3.895-0.064,7.789-0.049,11.683-0.007C523.236,538.849,523.807,538.567,523.638,537.389z M508.124,523.814
		c-1.284,3.041-3.556,4.607-6.879,4.649c-3.704,0.056-6.195-1.291-7.429-4.431c-1.58-3.979-1.531-8.057,0.127-12.001
		c1.34-3.189,4.028-4.649,7.662-4.466c3.323,0.176,5.461,1.954,6.618,5.016c0.677,1.785,0.875,3.633,0.811,5.545
		C509.104,520.068,508.886,521.987,508.124,523.814z"/>
	<path style="fill:#3AA335;" d="M441.254,537.685c-0.028-0.43,0-0.868,0-1.298v-36.363c0-0.43-0.021-0.868,0-1.298
		c0.049-0.79-0.24-1.192-1.101-1.192c-4.113,0.021-8.226,0.021-12.34,0c-0.832,0-1.164,0.325-1.129,1.157
		c0.042,1.115,0.007,2.237,0.007,3.358c-1.7-1.594-3.337-2.949-5.263-3.944c-7.133-3.676-16.149-1.496-21.095,5.122
		c-2.392,3.189-3.789,6.808-4.268,10.738c-0.72,5.835-0.226,11.5,2.702,16.784c6.124,11.034,21.441,11.197,27.925,3.281
		c0,1.206,0.028,2.413-0.007,3.619c-0.028,0.804,0.226,1.185,1.094,1.178c4.113-0.021,8.226-0.021,12.34,0
		C440.951,538.835,441.318,538.517,441.254,537.685z M425.775,523.723c-1.284,3.196-3.655,4.741-7.246,4.741
		c-3.605-0.007-6.068-1.517-7.246-4.727c-1.397-3.789-1.34-7.655,0.141-11.408c1.319-3.337,3.979-4.903,7.69-4.769
		c3.238,0.12,5.581,1.891,6.766,5.129c0.628,1.714,0.84,3.492,0.79,5.313C426.735,519.962,426.509,521.888,425.775,523.723z"/>
	<path style="fill:#3AA335;" d="M676.193,515.489c-0.649-9.179-6.547-16.128-15.486-18.308c-4.868-1.192-9.75-1.164-14.569,0.127
		c-6.801,1.827-11.606,5.948-13.92,12.714c-0.875,2.547-1.221,5.186-1.094,7.881c0,0.72-0.028,1.446,0.007,2.166
		c0.437,9.017,5.835,15.853,14.52,18.358c5.115,1.468,10.286,1.559,15.401,0.176c7.669-2.06,12.657-6.921,14.59-14.724
		C676.327,521.126,676.397,518.304,676.193,515.489z M660.777,523.927c-1.291,3.182-3.542,4.607-7.302,4.544
		c-3.563-0.056-5.948-1.552-6.999-4.685c-1.291-3.852-1.326-7.796,0.014-11.655c1.122-3.231,3.605-4.677,7.471-4.628
		c3.535,0.042,5.792,1.594,6.942,4.748c0.684,1.863,0.762,3.796,0.79,5.743C661.652,520.012,661.553,522.015,660.777,523.927z"/>
	<path style="fill:#3AA335;" d="M450.88,515.591c0-6.497,0.01-12.995-0.005-19.493c-0.006-2.475,0.304-4.899,1.106-7.24
		c2.193-6.394,6.888-9.58,13.432-10.221c2.878-0.282,5.767-0.154,8.608,0.544c1.027,0.252,1.599,0.663,1.562,1.876
		c-0.086,2.813-0.063,5.631-0.009,8.446c0.02,1.065-0.306,1.417-1.379,1.214c-1.415-0.268-2.837-0.458-4.292-0.094
		c-2.816,0.706-4.527,3.067-4.29,5.939c0.062,0.756,0.385,0.985,1.082,0.979c1.877-0.018,3.757,0.039,5.632-0.017
		c1.029-0.031,1.404,0.329,1.383,1.372c-0.053,2.67-0.052,5.343-0.001,8.013c0.021,1.127-0.393,1.525-1.52,1.476
		c-1.73-0.075-3.467,0.024-5.198-0.033c-1.001-0.033-1.463,0.256-1.391,1.336c0.077,1.15,0.016,2.309,0.016,3.464
		c0,7.869,0.003,15.739-0.002,23.608c-0.001,2.038-0.011,2.051-1.93,2.056c-3.755,0.01-7.511,0.015-11.266-0.004
		c-1.502-0.008-1.535-0.039-1.537-1.564c-0.012-7.219-0.006-14.439-0.006-21.659C450.875,515.591,450.877,515.591,450.88,515.591z"
		/>
	<path style="fill:#3AA335;" d="M624.335,511.432c-2.647-1.858-5.242-3.039-8.13-3.58c-1.296-0.243-2.586-0.309-3.878-0.205
		c-4.126,0.332-6.851,2.618-7.778,6.637c-0.573,2.485-0.571,5.026,0.036,7.511c1.025,4.192,3.897,6.424,8.243,6.618
		c3.434,0.153,6.542-0.834,9.495-2.488c0.616-0.345,1.113-0.912,1.846-1.048c0.641,0.293,0.629,0.955,0.828,1.46
		c0.793,2.012,1.531,4.046,2.285,6.073c0.857,2.303,0.86,2.312-1.163,3.563c-2.555,1.58-5.374,2.42-8.302,2.967
		c-4.53,0.846-9.053,0.823-13.539-0.223c-8.708-2.03-14.456-8.842-15.087-17.835c-0.203-2.889-0.157-5.776,0.584-8.602
		c1.93-7.36,6.56-12.275,13.758-14.592c6.934-2.232,13.827-1.733,20.503,1.157c4.301,1.861,4.276,1.926,2.659,6.287
		C625.949,507.147,625.188,509.159,624.335,511.432z"/>
	<path style="fill:#3AA335;" d="M546.357,503.894c0.354-0.404,0.538-0.538,0.621-0.719c1.944-4.262,7.048-7.456,13.936-6.427
		c2.044,0.305,2.157,0.447,2.163,2.447c0.01,3.749,0.003,7.499,0.003,11.201c-0.808,0.394-1.363-0.115-1.933-0.323
		c-2.225-0.808-4.512-0.966-6.831-0.726c-4.325,0.449-6.924,3.174-7.184,7.536c-0.09,1.511-0.049,3.03-0.051,4.546
		c-0.005,5.269,0.007,10.538-0.008,15.807c-0.004,1.536-0.036,1.569-1.534,1.577c-3.827,0.02-7.653,0.018-11.48,0.002
		c-1.64-0.007-1.667-0.032-1.669-1.659c-0.01-8.012-0.009-16.023-0.003-24.035c0.003-4.619,0.012-9.236-0.439-13.842
		c-0.166-1.699-0.098-1.736,1.486-1.745c3.538-0.02,7.076-0.022,10.614,0.001c1.506,0.01,1.512,0.046,1.712,1.572
		C545.954,500.609,546.135,502.112,546.357,503.894z"/>
	<path style="fill:#3AA335;" d="M582.161,518.193c0,6.276,0.006,12.552-0.003,18.828c-0.003,1.768-0.023,1.789-1.753,1.795
		c-3.752,0.014-7.505,0.013-11.257,0c-1.681-0.006-1.712-0.027-1.713-1.6c-0.009-12.696-0.009-25.393,0.001-38.089
		c0.001-1.548,0.036-1.583,1.516-1.59c3.897-0.02,7.794-0.022,11.69,0c1.477,0.008,1.51,0.047,1.513,1.611
		C582.169,505.497,582.161,511.845,582.161,518.193z"/>
	<path style="fill:#3AA335;" d="M574.669,490.521c-1.947,0-3.894-0.036-5.84,0.015c-0.983,0.026-1.434-0.239-1.418-1.326
		c0.052-3.603,0.034-7.207,0.011-10.811c-0.005-0.798,0.234-1.169,1.101-1.163c4.181,0.028,8.363,0.025,12.545,0.002
		c0.86-0.005,1.106,0.38,1.102,1.177c-0.022,3.604-0.041,7.208,0.01,10.811c0.016,1.116-0.521,1.32-1.455,1.305
		C578.706,490.499,576.687,490.521,574.669,490.521z"/>
</g>
</svg>
