<?xml version="1.0" encoding="utf-8"?>
<!-- Generator: Adobe Illustrator 15.0.0, SVG Export Plug-In  -->
<!DOCTYPE svg PUBLIC "-//W3C//DTD SVG 1.1//EN" "http://www.w3.org/Graphics/SVG/1.1/DTD/svg11.dtd" [
	<!ENTITY ns_flows "http://ns.adobe.com/Flows/1.0/">
]>
<svg version="1.1"
	 xmlns="http://www.w3.org/2000/svg" xmlns:xlink="http://www.w3.org/1999/xlink" xmlns:a="http://ns.adobe.com/AdobeSVGViewerExtensions/3.0/"
	 x="0px" y="0px" width="122px" height="64px" viewBox="-0.248 -0.356 122 64" enable-background="new -0.248 -0.356 122 64"
	 xml:space="preserve">
<defs>
</defs>
<path fill="#F58520" d="M64.492,26.013l-9.861-9.877c0-3.491,2.784-6.274,6.274-6.274c3.49,0,6.275,2.783,6.275,6.274l9.875,9.877
	c0,8.959-7.283,16.135-16.15,16.135c-8.975,0-16.151-7.271-16.151-16.135v-7.577l7.576,7.577c0,4.779,3.895,8.575,8.575,8.575
	c4.777,0,8.576-3.893,8.576-8.575l-9.877-9.877c0-0.692,0.61-1.287,1.302-1.287c0.692,0,1.306,0.595,1.306,1.287l9.857,9.877
	c0,6.178-4.986,11.26-11.261,11.26c-6.177,0-11.261-4.986-11.261-11.26l-2.297-2.299v2.299c0,7.465,6.08,13.543,13.558,13.543
	c7.481,0,13.562-6.078,13.562-13.543l-9.877-9.877c0-1.995-1.594-3.684-3.685-3.684c-1.994,0-3.681,1.593-3.681,3.684l9.862,9.877
	c0,3.492-2.803,6.274-6.274,6.274c-3.49,0-6.292-2.782-6.292-6.274l-9.862-9.877C44.56,7.175,51.833,0,60.714,0
	c8.96,0,16.136,7.271,16.136,16.136v7.578l-7.561-7.578c0-4.778-3.895-8.575-8.575-8.575c-4.796,0-8.575,3.893-8.575,8.575
	L62,26.013c0,0.692-0.594,1.287-1.286,1.287c-0.71,0-1.306-0.595-1.306-1.287l-9.862-9.877c0-6.178,4.972-11.261,11.261-11.261
	c6.181,0,11.261,4.987,11.261,11.261l2.301,2.3v-2.3c0-7.464-6.08-13.546-13.562-13.546c-7.479,0-13.558,6.082-13.558,13.546
	l9.877,9.877c0,1.996,1.59,3.683,3.681,3.683C62.898,29.601,64.492,28.008,64.492,26.013"/>
<path fill="#4B3E3A" d="M0.402,59.505c0.29,0.789,0.595,1.385,0.997,1.881c0.692,0.805,1.593,1.209,2.59,1.209
	c0.595,0,0.997-0.211,1.496-0.498c0.402-0.404,0.596-0.902,0.596-1.498c0-0.594-0.194-1.094-0.596-1.496
	c-0.306-0.305-0.804-0.707-1.689-1.207l-1.496-0.885c-0.5-0.305-0.804-0.611-1.094-0.898c-0.515-0.598-0.708-1.193-0.708-1.805
	c0-0.885,0.306-1.592,0.901-2.186c0.596-0.596,1.4-0.902,2.285-0.902c0.402,0,0.901,0.098,1.399,0.307
	c0.596,0.193,0.9,0.305,0.998,0.305c0.208,0,0.402-0.111,0.499-0.209c0.096-0.096,0.096-0.193,0.192-0.402h0.402l0.402,3.699H7.175
	c-0.289-1.107-0.691-1.898-1.399-2.395c-0.596-0.402-1.287-0.693-1.883-0.693c-0.499,0-0.9,0.098-1.303,0.387
	c-0.402,0.307-0.499,0.707-0.499,1.205c0,0.5,0.096,0.789,0.402,1.191c0.306,0.305,0.692,0.693,1.303,0.998l1.497,0.996
	c0.997,0.596,1.689,1.096,1.978,1.594c0.402,0.498,0.612,1.094,0.612,1.803c0,0.885-0.306,1.688-0.997,2.283
	c-0.708,0.594-1.593,0.9-2.703,0.9c-0.499,0-1.094-0.098-1.689-0.307c-0.595-0.191-0.901-0.287-0.997-0.287
	c-0.194,0-0.29,0.096-0.402,0.193c-0.097,0.094-0.097,0.303-0.097,0.4H0.595L0,59.505H0.402z"/>
<path fill="#4B3E3A" d="M9.17,62.789c0.498-0.098,0.9-0.193,1.094-0.307c0.209-0.098,0.209-0.482,0.209-0.998v-6.564
	c0-0.496-0.098-0.898-0.209-0.996c-0.194-0.209-0.5-0.305-1.094-0.305v-0.307h7.882l0.096,2.107h-0.4
	c-0.097-0.709-0.29-1.111-0.595-1.303c-0.307-0.193-0.805-0.305-1.691-0.305h-1.994c-0.21,0-0.402,0-0.402,0.111
	c-0.096,0.098-0.096,0.193-0.096,0.385v3.396h2.282c0.597,0,0.999-0.098,1.208-0.307c0.193-0.193,0.288-0.596,0.385-1.094h0.307
	v3.395h-0.307c-0.097-0.596-0.29-0.998-0.385-1.094c-0.209-0.209-0.612-0.307-1.208-0.307H11.97V62c0,0.289,0.096,0.482,0.288,0.482
	c0.21,0.113,0.708,0.113,1.706,0.113c0.997,0,1.689-0.113,2.189-0.307c0.498-0.191,0.899-0.691,1.287-1.592h0.4l-0.692,2.492H9.17
	V62.789z"/>
<path fill="#4B3E3A" d="M23.231,57.705c0.788-0.307,1.19-0.902,1.19-1.787c0-0.9-0.402-1.398-1.095-1.801
	c-0.402-0.193-0.899-0.305-1.496-0.305c-0.402,0-0.69,0-0.805,0.111c-0.095,0.098-0.095,0.193-0.095,0.385v3.588
	C22.022,58.009,22.827,57.896,23.231,57.705 M18.244,62.789c0.595-0.098,0.899-0.193,1.092-0.307
	c0.097-0.193,0.209-0.594,0.209-1.189v-6.373c0-0.496-0.112-0.898-0.209-0.996c-0.193-0.209-0.498-0.305-0.997-0.305v-0.307h4.087
	c0.899,0,1.592,0.111,2.091,0.307c1.109,0.402,1.592,1.189,1.592,2.299c0,0.691-0.193,1.287-0.692,1.689
	c-0.499,0.402-1.094,0.691-1.996,0.789l2.993,3.795c0.209,0.193,0.402,0.404,0.595,0.5c0.209,0.098,0.404,0.191,0.709,0.191v0.307
	h-2.396l-3.685-4.584h-0.612v2.879c0,0.516,0.114,0.9,0.209,0.998c0.193,0.113,0.5,0.209,1.095,0.307v0.303h-4.085V62.789z"/>
<path fill="#4B3E3A" d="M28.008,62.789c0.498-0.098,0.902-0.193,1.093-0.307c0.209-0.098,0.209-0.482,0.209-0.998v-6.564
	c0-0.496-0.097-0.898-0.209-0.996c-0.191-0.209-0.498-0.305-1.093-0.305v-0.307h7.883l0.097,2.107h-0.404
	c-0.097-0.709-0.288-1.111-0.595-1.303c-0.307-0.193-0.805-0.305-1.691-0.305h-1.994c-0.209,0-0.4,0-0.4,0.111
	c-0.097,0.098-0.097,0.193-0.097,0.385v3.396h2.286c0.595,0,0.995-0.098,1.205-0.307c0.195-0.193,0.288-0.596,0.385-1.094h0.307
	v3.395h-0.307c-0.097-0.596-0.288-0.998-0.385-1.094c-0.209-0.209-0.61-0.307-1.205-0.307h-2.286V62
	c0,0.289,0.097,0.482,0.288,0.482c0.209,0.113,0.71,0.113,1.706,0.113c0.999,0,1.691-0.113,2.189-0.307
	c0.498-0.191,0.901-0.691,1.302-1.592h0.385l-0.688,2.492h-7.98V62.789z"/>
<path fill="#4B3E3A" d="M37.081,62.789c0.595-0.098,0.999-0.193,1.189-0.404c0.209-0.193,0.307-0.691,0.307-1.494v-6.467
	l-0.194-0.211c-0.303-0.289-0.498-0.498-0.707-0.498c-0.194-0.096-0.4-0.096-0.692-0.096v-0.307h2.496l5.679,7.078v-4.875
	c0-0.805-0.097-1.303-0.404-1.592c-0.194-0.209-0.498-0.305-1.092-0.305v-0.307h3.491v0.307c-0.595,0.096-0.902,0.193-1.096,0.402
	c-0.094,0.191-0.209,0.689-0.209,1.494v7.771h-0.288l-6.483-8.076v5.791c0,0.787,0.097,1.287,0.404,1.594
	c0.191,0.193,0.498,0.287,0.995,0.287v0.307h-3.491L37.081,62.789L37.081,62.789z"/>
<path fill="#4B3E3A" d="M54.133,59.296l-1.706-4.086l-1.687,4.086H54.133z M47.747,63.091v-0.303c0.4,0,0.692-0.193,0.902-0.404
	c0.19-0.193,0.498-0.9,0.995-1.994l3.09-7.271h0.307l3.681,8.365c0.194,0.613,0.404,0.9,0.595,0.998
	c0.098,0.113,0.404,0.209,0.692,0.307v0.303H54.23v-0.303c0.4,0,0.692-0.098,0.786-0.098c0.116-0.096,0.209-0.209,0.209-0.402
	c0-0.098,0-0.191-0.093-0.4c0-0.195-0.116-0.404-0.209-0.596l-0.595-1.4h-3.895c-0.385,0.998-0.595,1.592-0.692,1.801
	c-0.097,0.195-0.097,0.404-0.097,0.498c0,0.193,0.097,0.404,0.292,0.5c0.112,0.098,0.4,0.098,0.707,0.098v0.303H47.747z"/>
<path fill="#4B3E3A" d="M61.807,62.789c0.691-0.098,1.092-0.193,1.287-0.404c0.209-0.193,0.307-0.596,0.307-1.383v-7.578
	c0-0.609-0.098-0.996-0.307-1.205c-0.195-0.193-0.596-0.289-1.287-0.387v-0.305h4.875v0.305c-0.596,0-1.094,0.193-1.287,0.387
	c-0.209,0.209-0.307,0.596-0.307,1.205v3.379h5.293v-3.379c0-0.609-0.111-0.996-0.307-1.205c-0.191-0.193-0.594-0.289-1.301-0.387
	v-0.305h4.889v0.305c-0.594,0-1.092,0.193-1.287,0.387c-0.209,0.209-0.307,0.596-0.307,1.205v7.771c0,0.594,0.098,0.996,0.307,1.189
	c0.195,0.211,0.596,0.307,1.287,0.404v0.303h-4.889v-0.303c0.707-0.098,1.109-0.193,1.301-0.404
	c0.195-0.193,0.307-0.691,0.307-1.383v-3.395h-5.293v3.588c0,0.594,0.098,0.996,0.307,1.189c0.193,0.211,0.594,0.307,1.287,0.404
	v0.303h-4.875V62.789z"/>
<path fill="#4B3E3A" d="M77.25,61.597c0.596,0.691,1.398,1.094,2.301,1.094c0.883,0,1.594-0.402,2.189-1.094
	c0.594-0.707,0.9-1.898,0.9-3.492c0-1.592-0.307-2.797-0.9-3.49c-0.596-0.691-1.4-1.094-2.189-1.094
	c-0.902,0-1.594,0.402-2.301,1.094c-0.594,0.693-0.902,1.898-0.902,3.49C76.348,59.699,76.656,60.89,77.25,61.597 M76.158,54.423
	c0.896-0.902,1.994-1.305,3.393-1.305c1.287,0,2.492,0.402,3.379,1.305c0.998,0.885,1.496,2.186,1.496,3.779
	c0,1.592-0.498,2.896-1.496,3.797c-0.887,0.789-1.994,1.287-3.281,1.287c-1.398,0-2.496-0.498-3.49-1.398
	c-0.902-0.998-1.4-2.189-1.4-3.686C74.662,56.609,75.158,55.308,76.158,54.423"/>
<path fill="#4B3E3A" d="M85.824,53.312h8.365l0.113,2.492h-0.404c-0.191-0.787-0.4-1.285-0.688-1.496
	c-0.307-0.191-0.805-0.385-1.707-0.385h-0.789v7.561c0,0.613,0.098,0.9,0.291,1.111c0.207,0.096,0.596,0.193,1.205,0.287v0.307
	h-4.295v-0.307c0.596,0,1-0.191,1.189-0.287c0.211-0.211,0.211-0.596,0.211-1.209v-7.365h-0.805c-0.789,0-1.385,0.096-1.688,0.402
	c-0.307,0.191-0.502,0.787-0.693,1.494h-0.402L85.824,53.312z"/>
<path fill="#4B3E3A" d="M95.395,62.789c0.502-0.098,0.902-0.193,1.096-0.307c0.191-0.098,0.191-0.482,0.191-0.998v-6.564
	c0-0.496-0.094-0.898-0.191-0.996c-0.193-0.209-0.5-0.305-1.096-0.305v-0.307h7.869l0.111,2.107h-0.4
	c-0.098-0.709-0.307-1.111-0.596-1.303c-0.307-0.193-0.803-0.305-1.705-0.305H98.68c-0.195,0-0.389,0-0.389,0.111
	c-0.113,0.098-0.113,0.193-0.113,0.385v3.396h2.301c0.596,0,1-0.098,1.191-0.307c0.209-0.193,0.307-0.596,0.402-1.094h0.307v3.395
	h-0.307c-0.096-0.596-0.307-0.998-0.402-1.094c-0.191-0.209-0.596-0.307-1.191-0.307h-2.301V62c0,0.289,0.113,0.482,0.307,0.482
	c0.195,0.113,0.693,0.113,1.688,0.113c1,0,1.707-0.113,2.207-0.307c0.498-0.191,0.885-0.691,1.287-1.592h0.4l-0.691,2.492h-7.98
	V62.789z"/>
<path fill="#4B3E3A" d="M105.066,62.789c0.498-0.098,0.896-0.193,1.092-0.307c0.195-0.098,0.195-0.482,0.195-0.998v-6.564
	c0-0.496-0.098-0.898-0.195-0.996c-0.195-0.209-0.498-0.305-1.092-0.305v-0.307h4.182v0.307c-0.5,0-0.9,0.096-1.096,0.305
	c-0.191,0.098-0.303,0.5-0.303,0.996V62c0,0.191,0,0.289,0.111,0.385c0.094,0.098,0.191,0.211,0.387,0.211c0.111,0,0.209,0,0.4,0
	c0.096,0,0.402,0,0.691,0c1.305,0,2.203-0.113,2.705-0.307c0.498-0.191,0.898-0.805,1.287-1.689h0.4l-0.693,2.59h-7.979
	L105.066,62.789L105.066,62.789z"/>
<path fill="#4B3E3A" d="M115.426,60.099c0.209,0.693,0.498,1.193,0.9,1.594c0.596,0.691,1.303,0.998,2.186,0.998
	c0.502,0,0.902-0.096,1.209-0.402c0.287-0.289,0.496-0.691,0.496-1.189c0-0.5-0.209-0.902-0.496-1.305
	c-0.209-0.191-0.707-0.594-1.4-0.996l-1.301-0.789c-0.389-0.209-0.693-0.498-0.887-0.707c-0.4-0.5-0.609-0.998-0.609-1.498
	c0-0.691,0.209-1.381,0.707-1.881c0.496-0.5,1.189-0.707,1.994-0.707c0.287,0,0.691,0.096,1.189,0.207
	c0.5,0.195,0.705,0.195,0.803,0.195c0.195,0,0.291,0,0.385-0.098c0.117-0.098,0.117-0.209,0.211-0.402h0.307l0.287,3.088h-0.4
	c-0.193-0.898-0.594-1.592-1.188-1.994c-0.502-0.4-1.098-0.594-1.594-0.594c-0.4,0-0.805,0.096-1.094,0.402
	c-0.307,0.191-0.5,0.594-0.5,0.996s0.096,0.693,0.291,0.998c0.209,0.289,0.596,0.594,1.092,0.9l1.303,0.789
	c0.803,0.498,1.402,0.996,1.689,1.398c0.307,0.402,0.498,0.902,0.498,1.496c0,0.787-0.289,1.4-0.902,1.883
	c-0.594,0.498-1.285,0.805-2.184,0.805c-0.5,0-0.9-0.098-1.398-0.307c-0.502-0.191-0.789-0.289-0.887-0.289
	c-0.209,0-0.307,0.098-0.4,0.191c-0.098,0.098-0.098,0.209-0.098,0.307h-0.307l-0.4-3.09H115.426z"/>
</svg>
