<?xml version="1.0" encoding="utf-8"?>
<!-- Generator: Adobe Illustrator 25.2.0, SVG Export Plug-In . SVG Version: 6.00 Build 0)  -->
<svg version="1.1" id="Layer_1" xmlns="http://www.w3.org/2000/svg" xmlns:xlink="http://www.w3.org/1999/xlink" x="0px" y="0px"
	 viewBox="0 0 231.3 54.3" style="enable-background:new 0 0 231.3 54.3;" xml:space="preserve">
<style type="text/css">
	.st0{fill:none;stroke:#000000;stroke-width:0.1918;stroke-miterlimit:10;}
	.st1{fill:#00A1D9;}
	.st2{enable-background:new    ;}
	.st3{fill:#676767;}
</style>
<line class="st0" x1="155.5" y1="48.9" x2="155.5" y2="6.2"/>
<g>
	<path class="st1" d="M10.1,17.2c0.6-0.6,1.4-1.2,2.3-1.9c0.3-0.3,0.6-0.6,0.8-0.7c0.2-0.2,0.4-0.5,0.5-0.7c0.2-0.3,0.3-0.7,0.4-1
		l0.6-1.7h-0.1c-0.2,0.6-0.6,1-1,1.4c-0.5,0.4-0.9,0.7-1.3,1c-0.6,0.4-1,0.8-1.5,1.2c-0.6,0.6-1,1.2-1.3,1.9v-0.1
		c0.4-1,0.6-1.9,0.8-2.6s0.3-1.3,0.5-1.9c0.1-0.4,0.3-0.9,0.6-1.3s0.6-0.8,1-1.1V9.6c-1.1,0.2-2.1,0.9-2.6,1.9c-0.7,0.9-1,2.1-1,3.3
		V19C8.9,18.2,9.5,17.7,10.1,17.2z M12.9,12.1c0.6-0.6,1-1.1,1.5-1.7c0.5-0.6,0.9-1.2,1.3-1.7c0.4-0.6,0.9-1,1.4-1.5L17,7.1
		c-0.4,0.3-0.9,0.6-1.3,0.7C15.1,8,14.5,8.3,14,8.6c-0.7,0.4-1.3,1-1.7,1.7c-0.7,1.1-1.2,2.2-1.4,3.5C11.6,13.3,12.3,12.7,12.9,12.1
		z M6.3,27.6c0.4,0.6,0.9,1.2,1.3,1.7c0.6,0.6,1,1.3,1.4,2.1h0.1C9,31.2,9,30.9,9,30.6v-0.9c0.1-0.6,0.2-1.1,0.3-1.6
		c0.2-0.7,0.5-1.6,0.7-2.4s0.5-1.8,0.6-2.7c0.2-0.8,0.2-1.7,0.2-2.4h-0.1c-0.2,0.6-0.3,1-0.6,1.5l-0.9,1.6c-0.3,0.6-0.6,1.1-0.9,1.7
		S8,26.7,8,27.4c0,0.3,0.1,0.6,0.2,0.9c0.1,0.2,0.1,0.5,0.2,0.7H8.2c-0.2-0.9-0.4-1.7-0.7-2.5C7.2,25.8,7,25,6.6,24.3
		C6.3,23.6,6,23,5.9,22.5c-0.2-0.5-0.2-0.9-0.3-1.3c0-0.3,0-0.6,0.1-0.9c0-0.3,0.1-0.6,0-0.9l0,0c-0.2,0.5-0.3,1-0.5,1.6
		S5,22.3,4.9,22.9c0,0.9,0.1,2,0.3,2.8C5.5,26.4,5.8,27.1,6.3,27.6z M17.1,43.8c0.2,0,0.5,0,0.6,0c0.3,0,0.6,0,0.9-0.1
		s0.6-0.1,1.1-0.2c0.5-0.1,1-0.2,1.7-0.4s1.6-0.4,2.8-0.7c-0.8-0.2-1.4-0.4-2-0.6c-0.6-0.2-1.2-0.6-1.7-1c-0.7-0.6-1.3-1.2-2.1-1.8
		c-0.6-0.5-1.1-0.9-1.6-1.4c-0.2-0.2-0.9-0.8-1.2-1l-0.1,0.1c0.1,0.2,0.8,1.6,0.8,1.6s0.1,0.2,0.2,0.2c0.2,0.3,0.4,0.7,0.6,1.1
		c0.1,0.2,0.2,0.3,0.2,0.4c0.2,0.5,0.6,0.9,1,1.2c0.7,0.6,1.6,1,2.5,1.3v0.1l-1.3-0.2c-0.3-0.1-0.7-0.1-0.9-0.2
		c-0.2-0.1-0.6-0.1-0.9-0.1S17,42,16.6,42s-0.6-0.1-0.9-0.2l-0.8-0.1l-0.4-0.1c-0.5-0.1-1-0.2-1.5-0.2c-0.5-0.2-0.9-0.3-1.3-0.6
		c-0.6-0.3-1-0.7-1.4-1.1h-0.1c0.2,0.4,0.5,0.8,0.8,1.1c0.4,0.4,0.8,0.9,1.3,1.2c0.6,0.4,1.1,0.8,1.7,1c0.8,0.3,1.6,0.5,2.4,0.6
		L17.1,43.8z M7.8,25.2L7.8,25.2C7.9,24.9,8,24.6,8,24.3s0.2-0.7,0.5-1c0.3-0.5,0.6-0.9,0.9-1.4c0.4-0.6,0.9-1.3,1.6-2.3
		c0.4-0.6,0.7-1.3,0.9-2.1c0.2-0.8,0.4-1.3,0.5-1.7h-0.1c-0.1,0.2-0.2,0.3-0.2,0.5c-0.2,0.2-0.2,0.3-0.4,0.5s-0.4,0.4-0.6,0.6
		c-0.2,0.2-0.6,0.6-1,0.9c-0.6,0.6-1.2,1.2-1.5,2c-0.2,0.6-0.5,1.3-0.6,2H7.8c0-0.3,0.1-0.6,0.1-0.9s0-0.7,0-1.2
		c0-0.6,0-1.3-0.1-2.1c-0.1-0.8-0.2-1.8-0.2-3.1c0-0.4,0.1-0.8,0.2-1.1c0.2-0.4,0.3-0.7,0.4-1l0,0c-0.7,0.9-1.3,1.9-1.7,3
		C6.2,16.8,6,17.7,6,18.7c0,1.1,0.2,2.1,0.6,3.1C7.1,22.8,7.5,24,7.8,25.2z M14,40.6l2.5,0.6l1.3,0.3c-0.5-0.6-0.9-1.1-1.3-1.7
		c-0.3-0.6-0.6-1.1-0.8-1.7c-0.2-0.6-0.6-1.5-1-2.6c-0.1-0.3-0.2-0.6-0.4-0.9c-0.2-0.2-0.3-0.6-0.5-0.9c-0.2-0.3-0.4-0.6-0.6-1
		c-0.2-0.4-0.6-0.9-0.9-1.4l-0.1,0.1c0.1,0.4,0.3,1.1,0.5,2.1s0.4,2,0.6,2.9c0.1,0.7,0.4,1.3,0.8,1.9c0.5,0.6,1,1.3,1.7,1.7l-0.2,0
		c-0.6-0.2-1-0.6-1.4-0.9c-0.6-0.6-1.4-1-2.1-1.3c-1.3-0.6-2.4-1.3-3.6-2c-0.9-0.6-1.5-1.4-2-2.4l-0.1,0.1c0.2,0.9,0.6,1.8,1.1,2.7
		C8,37,8.6,37.7,9.2,38.3c0.7,0.6,1.4,1.1,2.2,1.5C12.3,40.2,13.1,40.4,14,40.6z M8.4,34.5l4.4,2.9c-0.2-0.4-0.4-0.8-0.5-1.1
		c-0.2-0.4-0.2-0.8-0.3-1.2c-0.1-0.5-0.2-1-0.2-1.5s-0.2-1.2-0.2-2c-0.2-1.3-0.3-2.3-0.4-3.1c-0.2-0.8-0.3-1.6-0.6-2.3h-0.1
		c0,0.6,0,1.2-0.1,1.7s-0.2,0.9-0.2,1.3C10.1,29.6,10,30,10,30.3c-0.1,0.4-0.1,0.8-0.1,1.2c0,0.6,0.2,1.2,0.4,1.7
		c0.2,0.6,0.5,1.2,0.7,1.7L10.9,35c-0.6-0.9-1.3-1.8-2-2.7L7,30.6c-0.5-0.6-0.9-1.1-1.3-1.7S5.1,27.6,5,26.8
		c-0.1,0.2-0.1,0.4-0.1,0.6s0,0.4,0,0.6c0,0.7,0.2,1.4,0.4,2.1c0.2,0.7,0.6,1.3,0.9,2c0.3,0.6,0.7,1.1,1.2,1.6
		C7.6,33.8,8,34.2,8.4,34.5z M44.6,8.6c0.4,0.6,0.9,1.1,1.3,1.7c0.5,0.6,0.9,1.2,1.5,1.7c0.6,0.6,1.3,1.2,2.1,1.7
		c-0.2-1.2-0.7-2.4-1.4-3.4c-0.5-0.7-1-1.3-1.7-1.7c-0.6-0.3-1.1-0.6-1.7-0.8c-0.5-0.2-0.9-0.4-1.3-0.7l-0.1,0.1
		C43.8,7.6,44.2,8.1,44.6,8.6L44.6,8.6z M48.6,40.8c-0.4,0.2-0.9,0.5-1.3,0.6c-0.5,0.2-1,0.2-1.5,0.2l-0.5,0.2l-0.8,0.1
		c-0.3,0-0.6,0.1-0.9,0.2s-0.7,0.1-1.1,0.1s-0.6,0.1-0.9,0.1c-0.3,0-0.6,0.1-0.9,0.2c-0.3,0.1-0.8,0.2-1.3,0.2v-0.1
		c0.9-0.2,1.7-0.6,2.4-1.3c0.4-0.3,0.8-0.7,1-1.2l0.2-0.4c0.2-0.4,0.4-0.7,0.6-1c0.1-0.1,0.1-0.2,0.2-0.2c0,0,0.7-1.5,0.8-1.7
		l-0.1-0.1c-0.2,0.2-1,0.9-1.2,1c-0.6,0.5-1.1,0.9-1.6,1.4c-0.7,0.6-1.3,1.3-2.1,1.8c-0.5,0.5-1,0.8-1.7,1c-0.6,0.2-1.2,0.4-2,0.6
		c1.2,0.3,2.1,0.5,2.8,0.7s1.3,0.3,1.7,0.4s0.8,0.2,1.1,0.2c0.3,0.1,0.6,0.1,0.9,0.1c0.2,0,0.5,0,0.6,0l0.6-0.1
		c0.8-0.1,1.6-0.3,2.4-0.6c0.6-0.2,1.3-0.6,1.7-1s0.9-0.8,1.3-1.2c0.3-0.3,0.6-0.7,0.8-1.1h-0.1C49.5,40.2,49,40.5,48.6,40.8z
		 M51.9,35.9c-1.2,0.7-2.4,1.4-3.6,2c-0.8,0.4-1.5,0.8-2.1,1.3c-0.4,0.4-0.9,0.7-1.4,0.9L44.7,40c0.6-0.6,1.2-1.1,1.7-1.7
		c0.4-0.6,0.7-1.2,0.8-1.9c0.2-0.9,0.4-1.9,0.6-2.9s0.4-1.7,0.5-2.1l-0.1-0.1c-0.4,0.6-0.7,1-0.9,1.4s-0.5,0.7-0.6,1
		c-0.2,0.3-0.3,0.6-0.5,0.9c-0.2,0.3-0.3,0.6-0.4,0.9c-0.5,1.1-0.8,2-1,2.6s-0.5,1.1-0.8,1.7c-0.4,0.6-0.8,1.2-1.3,1.7l1.3-0.2
		l2.5-0.6c0.9-0.2,1.7-0.5,2.4-0.9c0.8-0.4,1.6-0.9,2.2-1.5c0.7-0.6,1.3-1.3,1.7-2.1c0.5-0.9,0.9-1.7,1.1-2.7l-0.1-0.1
		C53.4,34.4,52.8,35.2,51.9,35.9z M53.7,24.4c-0.3,0.7-0.6,1.4-0.9,2.2c-0.3,0.8-0.6,1.7-0.7,2.5H52c0-0.2,0.1-0.5,0.2-0.7
		c0.1-0.3,0.2-0.6,0.2-0.9c0-0.7-0.1-1.3-0.4-2c-0.2-0.6-0.6-1.2-0.9-1.7c-0.3-0.6-0.6-1-0.9-1.6c-0.3-0.5-0.5-0.9-0.6-1.5h-0.1
		c-0.1,0.8,0,1.7,0.2,2.4c0.2,0.9,0.4,1.8,0.6,2.7s0.5,1.7,0.7,2.4c0.2,0.5,0.3,1,0.3,1.6v0.9c0,0.3,0,0.6-0.1,0.9h0.1
		c0.4-0.8,0.9-1.4,1.4-2.1c0.5-0.6,0.9-1.2,1.3-1.7c0.4-0.6,0.7-1.3,0.9-2c0.2-0.9,0.4-1.9,0.4-2.9c0-0.6-0.1-1.3-0.3-1.9
		s-0.3-1-0.5-1.6h-0.1c0,0.3,0,0.6,0,0.9s0.1,0.6,0,0.9c0,0.5-0.2,0.9-0.3,1.3C54.3,23.1,54,23.7,53.7,24.4z M51.9,20.2
		c-0.4-0.8-0.9-1.4-1.5-2l-1-0.9c-0.2-0.2-0.5-0.5-0.6-0.6c-0.2-0.2-0.2-0.3-0.4-0.5c-0.1-0.2-0.2-0.3-0.2-0.6H48
		c0.1,0.4,0.2,0.9,0.5,1.7c0.2,0.7,0.6,1.4,0.9,2.1c0.6,0.9,1.2,1.7,1.6,2.3c0.3,0.5,0.6,0.9,0.9,1.4c0.2,0.3,0.3,0.6,0.5,1
		c0.1,0.3,0.2,0.6,0.2,0.9h0.1c0.2-1.2,0.6-2.4,1-3.5c0.4-1,0.6-2.1,0.6-3.2c0-0.9-0.2-1.9-0.5-2.8c-0.4-1.1-0.9-2.1-1.7-3H52
		c0.1,0.3,0.2,0.6,0.4,1s0.2,0.7,0.2,1.1c0,1.3,0,2.3-0.1,3.1s-0.1,1.5-0.1,2.1v1.3c0,0.3,0,0.6,0.1,0.9h-0.1
		C52.3,21.5,52.1,20.9,51.9,20.2L51.9,20.2z M49.3,10.7c0.2,0.5,0.4,0.9,0.6,1.4c0.2,0.6,0.3,1.2,0.5,1.9s0.5,1.6,0.8,2.6v0.1
		c-0.3-0.7-0.8-1.3-1.3-1.9c-0.5-0.4-0.9-0.9-1.5-1.2c-0.5-0.3-0.9-0.7-1.3-1c-0.5-0.4-0.8-0.9-1-1.5H46c0.2,0.7,0.4,1.3,0.6,1.7
		c0.1,0.4,0.2,0.7,0.4,1c0.2,0.2,0.3,0.5,0.5,0.7s0.5,0.5,0.8,0.7c0.9,0.8,1.7,1.4,2.3,1.9s1.1,1.1,1.6,1.8v-4.2
		c0-1.2-0.3-2.4-1-3.3c-0.6-0.9-1.6-1.7-2.6-1.9v0.1C48.7,10,49,10.3,49.3,10.7z M42.3,45.1c-0.3,0-0.6-0.1-0.9-0.1l-1.1-0.2l0,0
		c-0.3-0.1-0.8-0.2-1.2-0.4s-1-0.4-1.7-0.6l-2.6-0.9c-0.6-0.2-1.1-0.2-1.7-0.2c-0.6,0-1.2,0.1-1.7,0.2c-0.6,0.2-1,0.2-1.3,0.3
		c-0.2-0.1-0.6-0.2-1.3-0.3c-0.5-0.2-1-0.3-1.6-0.3s-1.2,0.1-1.7,0.3C25,43,24.1,43.4,23,43.8c-1.3,0.5-2.3,0.8-2.9,1
		s-1.3,0.3-2,0.3c-0.3,0-0.6,0-0.9-0.1c-0.2,0-0.5-0.1-0.7-0.2c0,0-0.6-0.2-0.9-0.3L14.5,44l-0.1,0.1c0.6,0.6,1.3,1.2,2.1,1.6
		c1,0.6,2.1,0.9,3.3,0.9c0.4,0,0.9,0,1.3-0.1s0.8-0.2,1.1-0.3c0.4-0.2,0.8-0.4,1.3-0.6c0.5-0.2,1-0.6,1.7-0.9s1.3-0.8,1.7-1
		c0.5-0.2,1-0.4,1.6-0.4c0.2,0,0.5,0.1,0.7,0.1c-0.8,0.5-1.7,0.9-2.7,1.6c-1.1,0.7-2.1,1.5-2.9,2.4l1,0.9c0.9-1,1.9-2.1,2.9-2.8
		c0.8-0.7,1.7-1.3,2.8-1.7c1,0.4,1.9,1,2.8,1.7c1.1,0.9,2.1,1.8,3,2.8l1-0.9c-0.9-0.9-1.9-1.8-3-2.4c-1-0.6-2-1.2-2.8-1.6
		c0.2-0.1,0.6-0.1,0.8-0.1c0.6,0,1.1,0.2,1.6,0.4s1,0.6,1.7,1l1.6,0.9c0.4,0.2,0.8,0.4,1.3,0.6c0.4,0.2,0.7,0.2,1.1,0.3
		c0.4,0.1,0.8,0.1,1.2,0.1h0.2c0.9,0,1.9-0.2,2.7-0.6c1-0.5,2-1.1,2.7-2v-0.1c-0.6,0.3-1.3,0.6-2,0.8C43.4,45,42.9,45.1,42.3,45.1
		L42.3,45.1z M55.5,27.7v-0.2c0-0.1,0-0.2,0-0.3c0-0.2-0.1-0.4-0.1-0.6c-0.1,0.7-0.3,1.4-0.7,2.1c-0.4,0.6-0.9,1.2-1.3,1.7l-0.1,0.1
		l-1.7,1.8c-0.7,0.8-1.4,1.7-2,2.6l0,0c0.3-0.6,0.5-1.1,0.7-1.7c0.2-0.6,0.3-1.1,0.4-1.7c0-0.4,0-0.8-0.1-1.2
		c-0.1-0.3-0.2-0.7-0.2-1.1c-0.1-0.5-0.2-0.9-0.2-1.3c-0.1-0.6-0.1-1.1-0.1-1.7H50l0,0h-0.2c-0.3,0.8-0.5,1.6-0.6,2.4
		c-0.1,0.7-0.2,1.7-0.4,3c-0.1,0.8-0.2,1.4-0.2,2s-0.2,1-0.2,1.5c-0.1,0.4-0.2,0.8-0.3,1.2c-0.2,0.3-0.2,0.6-0.4,0.9
		c0,0.1-0.1,0.1-0.1,0.2l0,0l1.5-0.9l3-2c0.4-0.3,0.8-0.6,1.2-1c0.5-0.5,0.8-1,1.1-1.6c0.2-0.4,0.4-0.8,0.6-1.2
		c0.1-0.2,0.2-0.5,0.3-0.8C55.4,29.2,55.6,28.5,55.5,27.7L55.5,27.7C55.5,27.8,55.5,27.8,55.5,27.7L55.5,27.7z M38.2,10.2
		c0.1,0.1,0.2,0.1,0.3,0.2c0.1,0.1,0.2,0.2,0.2,0.2c0.1,0.1,0.2,0.1,0.2,0.2c0.1,0,0.2-0.1,0.2-0.2c0-0.1,0-0.1,0-0.1s0,0,0-0.1
		c0-0.2-0.2-0.5-0.4-0.5c-0.1,0-0.2,0-0.2,0l-0.1-0.1h-0.1c-0.1,0-0.2,0-0.2,0.1C38.2,10,38.1,10.2,38.2,10.2z M31.9,8.8h0.2
		c0.2-0.1,0.4-0.2,0.6-0.2h0.9c0.2,0,0.2-0.1,0.4-0.2c0.1-0.1,0.2-0.2,0.2-0.2C34,8,33.6,7.8,33.4,7.8c-0.2,0-0.4-0.1-0.6-0.1
		c-0.2,0.1-0.5,0.2-0.7,0.2c-0.2,0.1-0.5,0.2-0.7,0.3c-0.2-0.1-0.3,0-0.4,0.2c0.1,0.1,0.2,0.2,0.3,0.3C31.4,8.7,31.7,8.8,31.9,8.8z
		 M30.1,41.5c9.9,0,18-8.1,18-18s-8.1-18-18-18s-18,8.1-18,18l0,0C12.1,33.4,20.1,41.5,30.1,41.5L30.1,41.5z M13,23.9h2.8
		c0,1.2,0.2,2.4,0.6,3.6c-0.1,0-0.2-0.1-0.2-0.2H16l-0.3-0.5L15.2,27c0,0.3-0.1,0.4-0.3,0.3c-0.1-0.1-0.2-0.1-0.2-0.2
		c-0.3,0-0.6,0.2-0.6,0.5l0,0C14,27.8,14,28.1,14,28.3l0.4,1.1c0.1,0.2,0.2,0.2,0.4,0.1c0.1,0.2,0.2,0.3,0.4,0.4
		c0.1,0.1,0.2,0.2,0.3,0.2s0.2-0.1,0.2-0.2c0,0,0,0,0-0.1h0.1C15.9,29.9,16,30,16,30s0.2,0.2,0.3,0.2v-0.1c0.2,0.2,0.3,0.2,0.5,0.2
		c0.1,0.2,0.2,0.5,0.3,0.6c0.1,0.2,0.3,0.2,0.5,0.2c0.1,0,0.2-0.1,0.2-0.2c0.1,0.2,0.2,0.4,0.3,0.6c0.1,0.1,0.2,0.1,0.3,0.2
		c0.1,0.1,0.2,0.1,0.2,0.2h0.2c0.1,0.2,0.2,0.3,0.3,0.5c0.1,0.1,0.2,0.2,0.4,0.3l0,0c0.1,0.1,0.1,0.1,0.2,0.2l-1.9,1.9
		C14.8,32.1,13.1,28.1,13,23.9z M26.1,18.9c-0.1,0-0.1-0.1-0.2-0.1l-0.2-0.2c1-0.9,2.4-1.5,3.8-1.6v2c0,0-0.1,0-0.1-0.1
		c0,0,0,0-0.1-0.1l0,0c-0.1,0-0.1,0-0.2,0H29l0,0c-0.1,0-0.1,0-0.2,0s-0.1,0-0.2,0h-0.1c-0.1-0.1-0.1-0.2-0.1-0.2l0,0
		c-0.2,0.1-0.2,0.2-0.2,0.2s-0.1,0.2-0.1,0.4s-0.2,0.3-0.3,0.3c-0.2,0.1-0.2,0.1-0.4,0.2l-0.2-0.1h-0.3c-0.1-0.1-0.1-0.1-0.2-0.2
		c-0.1,0-0.1-0.1-0.1-0.1c0-0.1-0.1-0.1-0.1,0c-0.1,0-0.2,0.1-0.2,0.2l0,0l-0.2-0.2h0.1v-0.2C26.5,19,26.4,19,26.1,18.9L26.1,18.9z
		 M25.2,17.9l-1.8-1.8c1.7-1.6,3.9-2.5,6.2-2.6v2.6C28,16.2,26.4,16.8,25.2,17.9L25.2,17.9z M26.2,26.6c0.1-0.1,0.1-0.2,0.1-0.4
		l-0.2,0.2c0.2-0.2,0.2-0.3,0.4-0.5c0.1-0.1,0.1-0.2,0.2-0.3l0,0c0.1,0.2,0.2,0.2,0.2,0.4l-1.7,1.7C24.5,26.9,24,26,23.8,25
		c0.2,0,0.3,0.1,0.4,0.1c0.2,0.1,0.2,0.2,0.4,0.3c0.1,0,0.2,0,0.2-0.1l0.2,0.2c0,0.1,0,0.2,0.1,0.3c0,0.1,0.1,0.1,0.2,0.2
		s0.2,0.1,0.2,0.2l0.1-0.1c0-0.1,0-0.2,0-0.2c0-0.1,0-0.2,0-0.2l0.1,0.4l0.2,0.5l0,0C26,26.7,26.1,26.7,26.2,26.6z M29.8,28.5
		c0.1,0.1,0.2,0.2,0.2,0.2c0,0.2-0.2,0.2-0.5,0.2c-0.2,0-0.2,0.1-0.2,0.3s-0.1,0.4-0.1,0.6h-0.1l0,0c-1.2-0.2-2.3-0.7-3.2-1.5
		l1.7-1.7c0.6,0.6,1.4,0.9,2.3,1c0,0.1,0,0.2,0.1,0.2c-0.1,0.1-0.2,0.2-0.1,0.3C29.7,28.4,29.7,28.4,29.8,28.5L29.8,28.5z
		 M21.8,28.6c0-0.3-0.1-0.7-0.2-1c-0.1-0.2-0.1-0.4-0.2-0.6c0-0.3-0.1-0.6-0.2-0.8c-0.2-0.2-0.3-0.6-0.6-0.7v-0.3
		c0-0.2-0.1-0.2-0.1-0.3v-0.1c0-0.1,0-0.2,0.1-0.2l0.6-0.2c0-0.2,0-0.4,0.1-0.6l0.5,0.1c0.2,0,0.2-0.1,0.2-0.2
		c0-0.2-0.1-0.2-0.1-0.4c0.1-0.2,0.1-0.3,0-0.4c0-0.1,0.1-0.2,0.2-0.2c0.1-0.1,0.2-0.1,0.4-0.1s0.3,0.1,0.4,0.2
		c0.1,0.2,0.2,0.3,0.1,0.5c0,0.1,0,0.2,0,0.3s0,0.2,0,0.2l0.2,0.1c-0.1,0.4-0.2,0.6-0.5,0.6c-0.1,0-0.2-0.1-0.2-0.2
		s-0.1-0.2-0.2-0.2c0,0-0.1,0-0.1,0.1s0,0.2,0.1,0.2c0.1,0.1,0.1,0.2,0.1,0.3c0,0.3-0.2,0.4-0.4,0.3c-0.1,0.2,0,0.2,0.2,0.2
		c0.1,0.2,0.2,0.3,0.2,0.3c0.1-0.2,0.1-0.2,0.2-0.4c0-0.2,0.1-0.3,0.2-0.5l0.1,0.1l0.2-0.1V25H23c0.2,1.3,0.9,2.5,1.7,3.6L22.2,31
		c-0.1,0-0.2-0.2-0.2-0.4c0.1-0.2,0.3-0.4,0.3-0.6l0.1-0.5C22.1,29.1,22,28.9,21.8,28.6L21.8,28.6z M20.4,24.9
		c0.1,0.1,0.1,0.2,0.1,0.2c0,0.2,0,0.2-0.2,0.2h-0.1C20.1,24.8,20,24.4,20,24h0.6c0,0.1,0,0.2-0.1,0.2s-0.1,0.2-0.2,0.2
		c-0.1,0.1-0.1,0.2-0.1,0.2C20.3,24.7,20.3,24.8,20.4,24.9L20.4,24.9z M20.1,23c0.2-2.3,1-4.5,2.6-6.2l1.8,1.8l-0.1,0.1
		c-0.1,0-0.2,0.1-0.3,0.1c-0.1,0-0.2,0.2-0.2,0.2c-0.2,0.1-0.4,0.2-0.6,0.3c-0.2,0.2-0.3,0.3-0.5,0.5c-0.2,0.1-0.3,0.2-0.5,0.2
		c-0.1,0-0.2,0.1-0.2,0.2c0.1,0.2,0.1,0.3,0,0.3l-0.6,0.2c-0.1,0-0.1,0-0.1,0.1L21.2,21c0,0.1-0.1,0.2-0.1,0.2c0,0.1,0,0.2-0.1,0.2
		c-0.1,0.1-0.2,0.2-0.3,0.3s-0.1,0.4,0,0.6l0.1,0.6l0,0c0,0.1,0.1,0.2,0.1,0.2L20.1,23z M25.2,29c0.9,0.8,2,1.3,3.2,1.7l-0.2,0.1
		c-0.2,0.1-0.3,0.2-0.4,0.4c0,0.2-0.1,0.4-0.2,0.5s-0.2,0.2-0.2,0.2c0.2,0.2,0.3,0.5,0.4,0.7c0.1,0.3,0.3,0.5,0.6,0.6l0.4,0.2
		c0.2,0,0.2,0.1,0.4,0.2c0.1,0,0.2,0,0.3,0.1c-2.2-0.2-4.3-1.1-6-2.6L25.2,29z M22.8,15.5L21,13.7c2.4-2.2,5.4-3.5,8.7-3.6v2.5
		C27,12.7,24.6,13.7,22.8,15.5z M22,16.1c-1.7,1.9-2.8,4.3-2.8,6.9h-2.5c0.1-3.2,1.4-6.3,3.6-8.7L22,16.1z M19.2,23.9
		c0,0.5,0.1,0.9,0.2,1.3c0-0.1-0.1-0.1-0.1-0.2c-0.2,0-0.3-0.2-0.3-0.2s-0.2,0.1-0.2,0.2c-0.1,0.1-0.1,0.2-0.2,0.2
		c-0.2,0.2-0.4,0.2-0.6,0.3c-0.2,0.2-0.3,0.5-0.4,0.7c-0.1,0.1,0,0.2,0,0.2c0.1,0.1,0,0.2-0.1,0.2c0.1,0.2,0.1,0.2,0.1,0.3
		s0,0.1,0,0.1c-0.1,0-0.1,0-0.2,0c0,0-0.1,0.1-0.1,0.2c-0.3-1.1-0.5-2.2-0.6-3.3C16.7,23.9,19.2,23.9,19.2,23.9z M29.6,40.5
		c-4.2-0.1-8.2-1.8-11.3-4.7l1.9-2c2.5,2.4,5.8,3.8,9.4,3.9L29.6,40.5z M29.6,36.9c-3.2-0.1-6.3-1.3-8.7-3.6
		c0.2,0.1,0.3,0.2,0.5,0.2s0.3-0.1,0.5-0.2c0.2-0.1,0.4-0.2,0.6-0.2s0.4,0,0.6-0.1c0.2,0.1,0.3,0.1,0.5,0c0.2,0,0.2-0.2,0.2-0.3
		s-0.1-0.2-0.2-0.3c-0.2-0.1-0.2-0.2-0.2-0.2s0-0.1-0.2-0.2c-0.2-0.2-0.2-0.3-0.4-0.4l0,0c1.9,1.7,4.3,2.8,6.9,2.8L29.6,36.9z
		 M30.1,30.2L30.1,30.2c-0.2,0-0.4,0-0.6-0.1c0-0.1-0.1-0.1-0.1-0.2c0.1-0.1,0.2-0.2,0.3-0.2c0.1-0.1,0.2-0.2,0.4-0.2v-0.2l0.5-0.3
		c0.1,0,0.1-0.1,0.2-0.1s0.2-0.1,0.3-0.2c0.2,0.1,0.3,0.2,0.5,0.2c0.2,0.1,0.3,0.2,0.5,0.2l0.1-0.2c0.1,0,0.2,0.1,0.4,0.2
		c0.1,0,0.2-0.1,0.3-0.1c0-0.1,0-0.2,0-0.3c0.1,0,0.2,0,0.2,0.1H33h0.1h0.1c0.2,0,0.2-0.1,0.3-0.2s0.2-0.2,0.3-0.2h0.1l0,0
		c0.1,0.1,0.1,0.2,0.1,0.2c0,0.3-0.2,0.6-0.5,0.7c-0.3,0.2-0.6,0.2-0.9,0.4c-0.1,0.1-0.1,0.2-0.2,0.2c-0.1,0.2-0.2,0.2-0.2,0.2
		c-0.2,0-0.5-0.1-0.7-0.1c-0.1-0.1-0.2-0.2-0.2-0.4c-0.2,0-0.3,0-0.4,0.1l-0.5,0.2C30.3,30.3,30.2,30.3,30.1,30.2L30.1,30.2z
		 M32.7,28.2c0-0.2,0.2-0.3,0.3-0.4s0.3-0.1,0.5-0.1c0,0.1-0.1,0.2-0.3,0.4C33,28.2,32.9,28.3,32.7,28.2L32.7,28.2z M34.5,26.8
		c0.2,0.1,0.2,0.3,0.2,0.5c0,0.1-0.1,0.2-0.2,0.2h-0.1c-0.2,0-0.2-0.2-0.3-0.4c-0.3-0.1-0.5-0.2-0.5-0.4s0-0.3,0.1-0.3
		s0.2-0.1,0.2-0.1c0.1,0,0.1,0.1,0.1,0.2L34.5,26.8z M40.3,16.7c0.1,0,0.1,0,0.2,0.1c0.2,0,0.3,0,0.4,0.1c0.3,0.2,0.6,0.6,0.7,0.9
		c0.1,0,0.1,0.1,0.2,0.2c0.1,0.1,0.2,0.2,0.2,0.2c0.1,0,0.2-0.1,0.3-0.1c0-0.1,0-0.1,0-0.2c0.7,1.6,1.1,3.3,1.2,5.1H41
		c0,0,0,0,0-0.1c0-0.2,0-0.5-0.2-0.6c-0.2-0.2-0.2-0.6-0.1-0.9c0.1-0.2,0.1-0.3,0-0.5c-0.1,0-0.2,0-0.2,0.1s-0.2,0.2-0.2,0.2
		c-0.1,0.2-0.1,0.2-0.2,0.3l0,0c0,0,0,0.1-0.1,0.1c0,0.1,0,0.1-0.1,0.2c-0.1,0.2-0.1,0.3-0.2,0.5c0,0.2,0,0.3,0,0.5l0,0V23h-1.3
		c0.1-0.1,0.2-0.2,0.3-0.2h-0.1l0.3-0.2c-0.1,0-0.1-0.1-0.1-0.2s0-0.2,0.1-0.2c0.1-0.1,0.2-0.1,0.3-0.2c0.2-0.2,0.2-0.4,0.3-0.6
		c0.2-0.4,0.4-0.8,0.5-1.2c0-0.1-0.2-0.2-0.2-0.3s0-0.2,0-0.2c0-0.4,0.2-1.2-0.3-1.3c-0.1,0-0.1-0.1-0.1-0.2
		c0.2-0.1,0.2-0.3,0.2-0.5h-0.4c0-0.1,0.1-0.2,0.1-0.2c0.1-0.1,0.1-0.2,0.1-0.2s-0.1-0.2-0.2-0.2l0,0l0,0c-0.1,0-0.2,0-0.3,0.1
		c-0.1,0-0.2,0.1-0.2,0.1h-0.1l-0.1-0.2c0-0.2-0.1-0.5-0.2-0.6c-0.2-0.2-0.3-0.2-0.5-0.3l0,0c0-0.1,0-0.2,0-0.2l0.5-0.6l0.7,0.2
		c0,0.2,0.1,0.3,0.2,0.4c0.1,0.1,0.2,0.2,0.2,0.2c0.1,0.1,0.2,0.2,0.3,0.2l0,0C40.2,16.7,40.3,16.7,40.3,16.7L40.3,16.7z M37.8,34.1
		C37.8,34,37.8,34,37.8,34.1c-0.2-0.1-0.2-0.1-0.2-0.2s0.1-0.2,0.2-0.2c0.2-0.1,0.2-0.2,0.3-0.4s0.1-0.2,0.1-0.4
		c0-0.1,0-0.2-0.1-0.2s-0.2-0.1-0.2-0.2c-0.1-0.1-0.2-0.1-0.2-0.1c-0.1-0.1-0.2-0.1-0.3-0.2c-0.1-0.1-0.2-0.2-0.2-0.3
		c0-0.1,0.1-0.2,0.1-0.3c0-0.1,0-0.1,0.1-0.2l0.2-0.1l1.4,1.4c0,0.2,0.1,0.2,0.3,0.3l0.2,0.2c-0.5,0.5-1,0.9-1.6,1.3
		c0-0.1,0.1-0.1,0.1-0.2c0,0,0.1,0,0.1-0.1C37.8,34.3,37.8,34.2,37.8,34.1z M37,27.6c-0.2,0-0.2,0-0.4,0.1s-0.3,0.2-0.4,0.3
		c0,0,0,0.1-0.1,0.1l0,0c-0.1,0-0.2,0-0.2,0.1c-0.1,0-0.2,0.1-0.3,0.2c-0.1,0-0.2-0.1-0.2-0.2S35.6,28,36,28
		c0.2-0.2,0.2-0.3,0.3-0.3c0.1-0.1,0.2-0.1,0.3-0.1c0.2-0.1,0.3-0.2,0.5-0.5c0.1-0.1,0.2-0.2,0.2-0.4h0.1c0,0.2,0.1,0.3,0.2,0.3
		s0.2-0.2,0.3-0.4c0.2,0.1,0.3,0.1,0.5,0.2c0.2,0,0.3-0.1,0.5-0.2h0.7c0,0,0,0,0,0.1v0.1l0,0c-0.4,1.3-1.1,2.5-2,3.6V30
		c-0.1-0.2-0.2-0.4-0.2-0.6c0,0-0.2,0.2-0.3,0.4s-0.2,0.5-0.2,0.6l-0.6,0.2c-0.2,0.1-0.4,0.1-0.6,0.1s-0.3-0.1-0.5-0.2
		s-0.3-0.2-0.5-0.2c-0.2-0.1-0.3-0.1-0.5-0.2C34,30,34,29.9,34,29.9s0.1-0.2,0.2-0.2s0.3,0.1,0.5,0.1l0.7,0.2l0.6,0.2
		c0.1,0.1,0.2,0.1,0.4,0.1l0.4-0.1c0-0.1,0.1-0.2,0.1-0.3c0.1-0.1,0.1-0.2,0.2-0.3c0.1-0.2,0.2-0.4,0.2-0.6c0.1-0.2,0.1-0.5,0.1-0.7
		C37.2,27.7,37.1,27.6,37,27.6z M38.6,23.9H40c0,0.6-0.1,1.2-0.2,1.7c-0.1-0.2-0.2-0.4-0.3-0.6L39,24.6c-0.1-0.2-0.1-0.3-0.1-0.4
		s-0.1-0.1-0.1-0.2C38.8,24,38.7,24,38.6,23.9L38.6,23.9z M39.2,31.2c-0.2,0-0.2,0-0.2,0.1c0,0.2,0,0.2-0.1,0.4L38,30.8
		c1.2-1.3,2.1-2.9,2.5-4.7h0.1c0.2,0.1,0.3,0.1,0.4,0c0.1-0.1,0.1-0.1,0.1-0.2c-0.1-0.2-0.2-0.4-0.3-0.5h-0.1c0.1-0.6,0.2-1,0.2-1.6
		h2.6c-0.1,3.2-1.4,6.3-3.6,8.7l-0.1-0.1l0,0c0-0.3-0.1-0.6-0.2-0.8S39.4,31.2,39.2,31.2L39.2,31.2z M38.5,18.2L38.5,18.2
		c0,0.1,0,0.2-0.1,0.3c0,0.1-0.1,0.2-0.1,0.3c0.2,0.2,0.3,0.3,0.5,0.4c0.2,0.2,0.4,0.2,0.6,0.4c0.2,0.2,0.2,0.5,0.2,0.7
		c0.1,0.2,0.2,0.4,0.2,0.6s-0.1,0.3-0.2,0.4c-0.2,0.2-0.3,0.3-0.6,0.4l-0.1-0.1c0-0.2,0.1-0.2,0.1-0.3c0.1-0.1,0.1-0.2,0.2-0.4
		c0.2-0.1,0.2-0.2,0.2-0.3l-0.2-0.1c-0.1-0.1-0.2-0.2-0.3-0.2c0-0.1-0.2-0.2-0.4-0.2c-0.1,0-0.2,0-0.3,0.1s-0.2,0.2-0.3,0.2
		l-0.1-0.2c0-0.1,0.1-0.2,0.1-0.2l-0.5-0.8C37.2,19.1,37,19,36.8,19c-0.2,0-0.3,0-0.5,0s-0.3,0-0.5,0s-0.4,0.1-0.5,0.2
		c-0.2,0.1-0.3,0.2-0.4,0.4c-0.1,0.1,0,0.2-0.2,0.2c-0.1-0.1-0.1-0.1-0.2-0.2l2.8-2.7l0.1,0.1l0.2,0.2c0.1,0.1,0.2,0.2,0.2,0.3
		C38.2,17.7,38.4,17.9,38.5,18.2L38.5,18.2z M32.1,36.2c0.2,0.2,0.5,0.3,0.8,0.4c-0.7,0.2-1.5,0.2-2.3,0.2v-2.6l0,0
		c0.1,0.2,0.2,0.3,0.4,0.4s0.3,0.1,0.6,0.1s0.4,0.1,0.4,0.2c0,0.1,0,0.2-0.1,0.2c-0.2,0.2-0.2,0.3-0.2,0.4
		C31.7,35.8,31.8,36,32.1,36.2z M30.5,40.5v-2.8c1,0,2-0.2,3-0.4c0,0,0,0,0,0.1v0.1c0.2,0.2,0.5,0.3,0.6,0.6
		c0.1,0.2,0.3,0.2,0.6,0.2c0.2,0,0.3,0,0.4-0.1s0.2-0.2,0.2-0.2c0.1-0.1,0.2-0.2,0.3-0.2s0.2-0.1,0.2-0.2c0.2-0.1,0.3-0.2,0.4-0.4
		c0.2-0.2,0.3-0.3,0.4-0.5c0.1,0,0.2-0.1,0.2-0.2c0.1-0.2,0.2-0.4,0.2-0.6l0.1-0.1v-0.1c0.9-0.6,1.8-1.2,2.6-1.9l1.9,2
		C38.7,38.7,34.8,40.4,30.5,40.5z M42.5,35.2l-2-1.9c2.4-2.5,3.8-5.8,3.9-9.3h2.8C47,28.1,45.3,32.1,42.5,35.2L42.5,35.2z M47.2,23
		h-2.8c-0.1-2.9-1-5.7-2.8-8c0-0.1-0.1-0.2-0.2-0.2c-0.1-0.1-0.1-0.1-0.2-0.2c-0.2-0.3-0.5-0.6-0.7-0.8c0-0.1-0.1-0.2-0.1-0.2
		l1.9-1.9C45.3,14.8,47,18.8,47.2,23L47.2,23z M30.5,6.4c4.3,0.1,8.3,1.8,11.3,4.7l-1.7,1.7C40,12.7,40,12.6,40,12.6
		c-0.2-0.1-0.2-0.2-0.2-0.2c-0.2-0.1-0.2-0.2-0.2-0.4s-0.1-0.3-0.2-0.4c-0.2-0.1-0.5-0.3-0.6-0.6s-0.3-0.4-0.5-0.4s-0.2,0-0.4-0.1
		s-0.2-0.1-0.4-0.1s-0.3,0-0.4,0.1c-0.2,0.1-0.3,0.1-0.5,0.1l-0.1,0.1c-1.8-0.9-3.8-1.5-5.8-1.6c0.2-0.3,0.2-0.5,0.1-0.5
		c0,0-0.2,0-0.2,0.2L30.5,6.4z M30.5,10c2,0.1,3.9,0.6,5.6,1.4c0,0,0,0,0,0.1c0.1,0.1,0.2,0.2,0.2,0.2c0.1,0.1,0.2,0.2,0.2,0.2
		c0.1,0.2,0.1,0.3,0.2,0.6c0.1,0.1,0.1,0.2,0.2,0.3c-0.1,0.2,0,0.3,0.1,0.5s0.2,0.3,0.3,0.5h0.2c0.1,0,0.2,0,0.3,0S38,13.9,38,14
		c0.1,0.1,0.2,0.2,0.2,0.4c0,0.1,0.1,0.2,0.1,0.2l-0.7,0.7l0,0c-0.1-0.3-0.2-0.7-0.4-1c-0.2-0.2-0.3-0.2-0.5-0.2
		c-0.1,0-0.2-0.2-0.4-0.5S36,13.1,36,13.1c-0.1,0-0.2,0-0.2,0.1s0.1,0.2,0.2,0.2l0.2,0.4c0,0.1,0,0.1-0.1,0.2l0,0
		c0,0.2,0.2,0.2,0.3,0.3l-0.1,0.1l0.2,0.3c-1.8-1.3-3.9-2.1-6.1-2.1L30.5,10L30.5,10z M30.5,13.5c2.3,0.1,4.6,1,6.2,2.6l-1.8,1.8
		c-1.3-1.1-2.8-1.7-4.4-1.8L30.5,13.5z M30.5,17.1c1.3,0.1,2.5,0.6,3.6,1.4c-0.1,0-0.1,0-0.2,0.1c0,0-0.1,0.1-0.2,0.1
		c0,0-0.1,0.1-0.1,0.2s0.2,0.2,0.2,0.2l-0.7,0.7l0,0c-0.1,0.1-0.2,0.1-0.2,0.2c-0.2,0.1-0.2,0.2-0.3,0.2c0,0.1-0.1,0.2-0.1,0.2
		l-0.1,0.1h-0.1c-0.1,0-0.2-0.1-0.4-0.2s-0.3-0.2-0.4-0.2s-0.2,0-0.2,0.1c-0.1,0.1-0.2,0.1-0.2,0c-0.1-0.1,0-0.2,0.2-0.2
		c0.2-0.1,0.5-0.2,0.6-0.2c0.3-0.2,0.5-0.6,0.5-0.9c0-0.2-0.1-0.3-0.2-0.3L32,18.4c-0.2,0.1-0.3,0.2-0.4,0.3L31.3,19
		c-0.1,0-0.3,0-0.4,0h-0.4V17.1z M30,21.2C30,21.2,30.1,21.2,30,21.2c0.2,0.1,0.3,0.1,0.4,0.2s0.2,0.1,0.3,0c0,0.1,0,0.1,0.1,0.1
		c0.1,0.1,0.2,0.2,0.2,0.2l0.1,0.1v0.1c0,0.1,0.1,0.2,0.1,0.2l0,0V22c0.1,0,0.2,0.1,0.2,0c0.1,0,0.1,0,0.2,0v0.2l0,0
		c0,0.1,0,0.1,0,0.2s0,0.2,0,0.2v0.1c0,0,0,0.1-0.1,0.1l0,0c-0.1,0.1-0.2,0.2-0.2,0.3s0.1,0.1,0.2,0.1s0.2,0,0.2,0.1
		s0.2,0.2,0.2,0.3v0.6c0,0.1,0,0.2,0.1,0.2c0.1,0,0.1,0.1,0.1,0.1c0,0.2,0,0.3-0.1,0.5c0,0.2-0.1,0.3-0.2,0.4c-0.1,0-0.2,0-0.3,0
		s-0.3-0.1-0.4-0.1s-0.2,0.2-0.2,0.4c-0.1,0.2-0.2,0.4-0.2,0.6s-0.2,0.2-0.2,0.2h-0.2l0,0L30,26.8l-0.1,0.1
		c-0.7-0.1-1.3-0.3-1.8-0.8l0.3-0.3c0.2,0,0.4-0.1,0.6-0.2l0.1-0.1c0.3-0.2,0.3-0.4,0.5-0.7c0.1-0.2,0.4-0.4,0.2-0.6
		c0.2-0.5-0.9-0.5-1.2-0.4c-0.2,0.1-0.1,0.4-0.2,0.6c-0.1,0.1-0.2,0.1-0.3,0.2c-0.2,0.2-0.4,0.4-0.5,0.6l0,0
		c-0.1-0.2-0.2-0.3-0.2-0.5h0.1c0-0.1,0-0.1,0-0.1h0.1v0.1c0.2,0,0.2,0,0.3,0c0-0.1,0.1-0.2,0.1-0.3c0.1-0.2,0.2-0.5,0.3-0.7
		c-0.1,0-0.2-0.1-0.2-0.2s-0.1-0.1-0.2-0.1s-0.1,0.1-0.1,0.2s-0.1,0.2-0.1,0.2c-0.1,0.1-0.2,0.1-0.2,0.1c0-0.1-0.1-0.2-0.2-0.2l0,0
		c0,0,0,0-0.1,0S27,23.8,27,23.9c-0.2,0-0.4,0-0.6,0.1s-0.4,0.1-0.6,0c-0.1-0.1,0-0.2,0.3-0.2c0-0.2,0.1-0.5,0.2-0.7
		c0.1,0.1,0.2,0.1,0.4,0.2l0.1-0.2h0.1c0.1,0,0.2,0.1,0.2,0.3c0.1,0.2,0.1,0.3,0.2,0.3s0.2-0.1,0.2-0.2v-0.3
		c0.1-0.3,0.2-0.6,0.2-0.6v-0.2c0.1-0.1,0.1-0.2,0.2-0.3H28c0-0.1,0.1-0.1,0.3-0.1c0.1-0.1,0.1-0.2,0.1-0.4c0.2,0,0.3-0.2,0.6-0.2
		c0.3-0.1,0.5-0.2,0.5-0.4l0,0c0.2,0,0.2-0.1,0.4-0.1C29.9,21,29.9,21.1,30,21.2L30,21.2z M29.6,6.4v2.7c-3.5,0.2-6.8,1.5-9.4,3.9
		l-1.9-1.9C21.4,8.1,25.4,6.5,29.6,6.4z M17.7,11.7l1.9,1.9c-2.4,2.5-3.8,5.8-3.9,9.4H13C13.1,18.8,14.8,14.8,17.7,11.7L17.7,11.7z"
		/>
	<path d="M83.3,12.6l0.1,1.5c0.9-1.1,2.3-1.8,3.7-1.7c1.2-0.1,2.3,0.3,3.1,1.2c0.7,1,1.1,2.3,1,3.6v8.4h-3.5v-8.2
		c0.1-0.6-0.1-1.2-0.5-1.6c-0.5-0.4-1-0.6-1.6-0.5c-0.9,0-1.7,0.5-2.2,1.3v9.2H80V12.6H83.3z"/>
	<path d="M94.4,9.2c0-0.5,0.2-0.9,0.6-1.3c0.8-0.6,2-0.6,2.8,0c0.3,0.3,0.6,0.8,0.6,1.3s-0.2,0.9-0.6,1.3c-0.8,0.7-2,0.7-2.8,0
		C94.6,10.2,94.4,9.7,94.4,9.2z M98.2,25.5h-3.5V12.6h3.5V25.5z"/>
	<path d="M105.3,9.4v3.2h2.2v2.5h-2.2v6.5c0,0.4,0.1,0.7,0.2,1c0.3,0.2,0.7,0.3,1,0.3s0.7,0,1-0.1v2.6c-0.7,0.2-1.4,0.3-2.1,0.3
		c-2.4,0-3.6-1.3-3.7-3.7v-6.9h-1.9v-2.5h1.9V9.4H105.3z"/>
	<path d="M88.8,46.4c-0.2-0.4-0.3-0.8-0.3-1.2c-0.9,0.9-2.1,1.4-3.3,1.4c-1.2,0.1-2.3-0.3-3.2-1.1c-0.8-0.7-1.3-1.7-1.3-2.8
		c-0.1-1.3,0.6-2.4,1.5-3.2c1.3-0.8,2.8-1.2,4.4-1.1h1.6v-0.8c0-0.6-0.2-1-0.5-1.4c-0.4-0.4-0.9-0.6-1.4-0.6S85.4,35.8,85,36
		c-0.3,0.3-0.5,0.7-0.5,1.2H81c0-0.8,0.2-1.5,0.7-2.1c0.5-0.7,1.2-1.2,2-1.5c0.9-0.4,1.9-0.6,2.8-0.6c1.3-0.1,2.7,0.4,3.8,1.2
		c0.9,0.9,1.5,2.1,1.4,3.4v5.6c-0.1,0.9,0.2,1.9,0.5,2.8v0.2L88.8,46.4z M85.9,44c0.5,0,0.9-0.1,1.4-0.3c0.4-0.2,0.7-0.6,0.9-0.9
		v-2.2H87c-1.7,0-2.7,0.6-2.8,1.8v0.2c0,0.4,0.2,0.8,0.5,1.1C85.1,43.8,85.5,44,85.9,44z"/>
	<path d="M98,30.3v3.2h2.2V36H98v6.5c0,0.4,0.1,0.7,0.3,1c0.3,0.2,0.7,0.4,1,0.3c0.3,0,0.7,0,1-0.1v2.6c-0.7,0.2-1.4,0.3-2.1,0.3
		c-2.4,0-3.6-1.3-3.7-3.7V36h-1.9v-2.5h1.9v-3.2C94.5,30.3,98,30.3,98,30.3z"/>
	<path d="M101.8,30.1c0-0.5,0.2-0.9,0.6-1.3c0.8-0.6,2-0.6,2.8,0c0.7,0.7,0.7,1.9,0,2.6c-0.8,0.7-2,0.7-2.8,0
		C101.9,31,101.8,30.6,101.8,30.1z M105.5,46.4H102v-13h3.5V46.4z"/>
	<path d="M107.5,39.8c0-1.2,0.2-2.4,0.7-3.4c0.5-0.9,1.2-1.8,2.1-2.4s2.1-0.9,3.2-0.8c1.6-0.1,3.2,0.6,4.3,1.6
		c1.2,1.2,1.8,2.7,1.8,4.3V40c0.1,1.7-0.5,3.5-1.7,4.8c-2.5,2.4-6.5,2.4-8.9,0c-1.2-1.3-1.7-3.1-1.7-4.9L107.5,39.8z M110.9,40
		c-0.1,1,0.2,2,0.7,2.8c0.9,1.1,2.4,1.3,3.5,0.5c0.2-0.2,0.3-0.3,0.5-0.5c0.6-0.9,0.8-2,0.7-3.1c0.1-1-0.2-2-0.7-2.8
		c-0.5-0.6-1.2-1-2-1s-1.5,0.3-2,0.9C111.1,37.9,110.9,38.9,110.9,40L110.9,40z"/>
	<path d="M124.5,33.4l0.1,1.5c0.9-1.1,2.3-1.8,3.7-1.7c1.2-0.1,2.3,0.4,3.1,1.2c0.7,1,1.1,2.4,1,3.6v8.4H129v-8.3
		c0.1-0.6-0.1-1.2-0.5-1.6c-0.5-0.4-1-0.6-1.6-0.5c-0.9,0-1.7,0.5-2.2,1.3v9.2h-3.5v-13h3.3V33.4z"/>
	<path d="M141.8,42.8c0-0.4-0.2-0.8-0.6-1c-0.6-0.3-1.3-0.6-2.1-0.6c-3.1-0.6-4.7-2-4.7-3.9c0-1.1,0.5-2.2,1.4-2.8
		c1.1-0.8,2.4-1.3,3.8-1.2c1.4-0.1,2.8,0.3,3.9,1.2c0.9,0.7,1.5,1.8,1.5,3h-3.5c0-0.5-0.2-0.9-0.5-1.3c-0.4-0.3-0.9-0.6-1.5-0.5
		c-0.5,0-0.9,0.1-1.3,0.4c-0.3,0.2-0.5,0.6-0.5,1s0.2,0.8,0.6,0.9c0.6,0.3,1.2,0.6,1.8,0.6c0.7,0.2,1.5,0.3,2.2,0.6
		c1.8,0.6,2.8,1.8,2.8,3.5c0,1.2-0.6,2.2-1.5,2.8c-1.2,0.8-2.5,1.1-3.9,1.1c-1,0-2-0.2-2.9-0.6c-0.8-0.3-1.5-0.9-2-1.6
		c-0.5-0.6-0.7-1.4-0.7-2.2h3.3c0,0.6,0.2,1.1,0.7,1.4c0.5,0.3,1.1,0.5,1.7,0.5c0.6,0,1-0.1,1.5-0.4
		C141.7,43.6,141.8,43.2,141.8,42.8z"/>
	<path d="M120.7,19c-0.1-1.7,0.4-3.4,1.3-4.8c0.9-1.2,2.3-1.8,3.7-1.8c1.2,0,2.4,0.5,3.2,1.4V7.2h3.5v18.4h-3.2l-0.2-1.3
		c-0.8,1-2.1,1.7-3.3,1.6c-1.4,0.1-2.8-0.6-3.6-1.8C121.1,22.5,120.7,20.8,120.7,19z M124.2,19.2c-0.1,0.9,0.2,2,0.6,2.8
		c0.4,0.6,1.1,1,1.8,0.9c0.9,0.1,1.9-0.5,2.3-1.3v-5.1c-0.4-0.9-1.3-1.4-2.2-1.3C125,15.2,124.2,16.5,124.2,19.2z"/>
	<path d="M77.7,8.1v11.4c0.1,1.7-0.6,3.3-1.8,4.5c-1.3,1.2-3.1,1.7-4.9,1.7c-1.7,0.1-3.5-0.5-4.8-1.6c-1.3-1.2-1.9-2.8-1.8-4.4V8.1
		H68v11.5c-0.1,0.9,0.2,1.8,0.8,2.5c0.6,0.6,1.4,0.9,2.3,0.8c2.1,0,3.1-1,3.1-3.2V8.1H77.7z"/>
	<path d="M78.7,46.4h-3.6l-7-11.4v11.4h-3.6V29H68l7.1,11.4V29h3.6V46.4z"/>
	<path d="M114.5,25.8c-1.7,0.1-3.3-0.6-4.5-1.8c-1.1-1.3-1.7-2.8-1.7-4.6v-0.5c-0.1-1.7,0.5-3.4,1.6-4.7c2.2-2.4,5.9-2.4,8.3-0.3
		c1,1.2,1.5,2.7,1.4,4.3V20h-7.7v0.1c0,0.8,0.3,1.5,0.9,2.1s1.3,0.9,2.1,0.8c0.6,0,1.3-0.1,1.9-0.2c0.6-0.2,1.2-0.5,1.7-0.7l0.9,2.1
		c-0.6,0.5-1.3,0.9-2.1,1.1C116.4,25.7,115.5,25.8,114.5,25.8z M114.2,15c-0.6,0-1.2,0.2-1.5,0.8c-0.4,0.6-0.6,1.3-0.7,2v0.1h4.3
		v-0.3c0.1-0.6-0.2-1.3-0.5-1.8C115.4,15.2,114.8,15,114.2,15L114.2,15z"/>
</g>
<g class="st2">
	<path class="st3" d="M177.1,31.6c-0.1,1.5-0.5,2.7-1.3,3.5s-1.9,1.2-3.3,1.2c-1.4,0-2.6-0.5-3.4-1.6s-1.3-2.6-1.3-4.4v-2.6
		c0-1.8,0.4-3.3,1.3-4.4c0.9-1.1,2-1.6,3.5-1.6c1.4,0,2.4,0.4,3.2,1.2s1.2,2,1.2,3.5h-1.8c-0.1-1.2-0.3-2-0.7-2.5s-1-0.7-1.9-0.7
		c-1,0-1.7,0.4-2.2,1.1c-0.5,0.8-0.8,1.9-0.8,3.3v2.6c0,1.4,0.2,2.5,0.7,3.3s1.2,1.2,2.1,1.2c0.9,0,1.6-0.2,2-0.7s0.7-1.3,0.8-2.5
		h1.9V31.6z"/>
	<path class="st3" d="M184.7,36.1c-0.1-0.2-0.2-0.6-0.2-1.2c-0.6,0.9-1.4,1.3-2.3,1.3c-1,0-1.7-0.3-2.2-0.8s-0.8-1.3-0.8-2.3
		c0-1.1,0.4-1.9,1.1-2.6c0.7-0.6,1.7-1,3-1h1.3v-1.1c0-0.6-0.1-1.1-0.4-1.3c-0.3-0.3-0.7-0.4-1.3-0.4c-0.5,0-0.9,0.2-1.3,0.5
		c-0.3,0.3-0.5,0.7-0.5,1.2h-1.7c0-0.5,0.2-1.1,0.5-1.5c0.3-0.5,0.7-0.9,1.3-1.2c0.5-0.3,1.1-0.4,1.8-0.4c1.1,0,1.9,0.3,2.5,0.8
		s0.9,1.3,0.9,2.3v5.3c0,0.8,0.1,1.5,0.3,2.1V36h-2V36.1z M182.4,34.7c0.4,0,0.8-0.1,1.2-0.4c0.4-0.2,0.7-0.5,0.8-0.9V31h-1
		c-0.8,0-1.5,0.2-1.9,0.6c-0.5,0.4-0.7,0.9-0.7,1.5s0.1,1,0.4,1.3C181.4,34.6,181.8,34.7,182.4,34.7z"/>
	<path class="st3" d="M193.2,27.1c-0.2,0-0.5-0.1-0.8-0.1c-0.9,0-1.5,0.5-1.9,1.5v7.6h-1.7V25.5h1.7v1.1c0.5-0.8,1.1-1.3,2-1.3
		c0.3,0,0.5,0,0.7,0.1V27.1z"/>
	<path class="st3" d="M198.7,36.3c-1.3,0-2.3-0.4-3-1.2s-1.1-1.9-1.1-3.5v-1.3c0-1.6,0.3-2.8,1-3.7c0.7-0.9,1.6-1.3,2.9-1.3
		c1.2,0,2.2,0.4,2.8,1.2c0.6,0.8,0.9,2,0.9,3.7v1.1h-5.9v0.2c0,1.1,0.2,2,0.6,2.5c0.4,0.5,1,0.8,1.8,0.8c0.5,0,1-0.1,1.3-0.3
		c0.4-0.2,0.8-0.5,1.1-0.9l0.9,1.1C201.4,35.8,200.2,36.3,198.7,36.3z M198.5,26.8c-0.7,0-1.2,0.2-1.6,0.7c-0.3,0.5-0.5,1.3-0.6,2.3
		h4.2v-0.2c0-1-0.2-1.7-0.5-2.1C199.6,27,199.1,26.8,198.5,26.8z"/>
	<path class="st3" d="M208.1,36.3c-1.3,0-2.3-0.4-3-1.2s-1.1-1.9-1.1-3.5v-1.3c0-1.6,0.3-2.8,1-3.7c0.7-0.9,1.6-1.3,2.9-1.3
		c1.2,0,2.2,0.4,2.8,1.2c0.6,0.8,0.9,2,0.9,3.7v1.1h-5.9v0.2c0,1.1,0.2,2,0.6,2.5c0.4,0.5,1,0.8,1.8,0.8c0.5,0,1-0.1,1.3-0.3
		c0.4-0.2,0.8-0.5,1.1-0.9l0.9,1.1C210.7,35.8,209.6,36.3,208.1,36.3z M207.9,26.8c-0.7,0-1.2,0.2-1.6,0.7c-0.3,0.5-0.5,1.3-0.6,2.3
		h4.2v-0.2c0-1-0.2-1.7-0.5-2.1C209,27,208.5,26.8,207.9,26.8z"/>
	<path class="st3" d="M218,27.1c-0.2,0-0.5-0.1-0.8-0.1c-0.9,0-1.5,0.5-1.9,1.5v7.6h-1.7V25.5h1.7v1.1c0.5-0.8,1.1-1.3,2-1.3
		c0.3,0,0.5,0,0.7,0.1V27.1z"/>
	<path class="st3" d="M224.9,33.4c0-0.4-0.1-0.7-0.4-1c-0.3-0.3-0.8-0.6-1.6-0.9c-0.9-0.4-1.6-0.7-2-1s-0.7-0.6-0.9-0.9
		s-0.3-0.8-0.3-1.2c0-0.9,0.3-1.6,0.9-2.1c0.6-0.6,1.4-0.9,2.4-0.9s1.9,0.3,2.5,0.9s0.9,1.4,0.9,2.3h-1.7c0-0.5-0.2-0.9-0.5-1.2
		c-0.3-0.3-0.7-0.5-1.2-0.5s-0.9,0.1-1.2,0.4s-0.4,0.6-0.4,1.1c0,0.4,0.1,0.6,0.3,0.8c0.2,0.2,0.7,0.5,1.5,0.8
		c1.3,0.5,2.2,1,2.6,1.5c0.5,0.5,0.7,1.1,0.7,1.8c0,0.9-0.3,1.7-0.9,2.2c-0.6,0.6-1.5,0.8-2.5,0.8c-1.1,0-2-0.3-2.7-0.9
		s-1-1.4-1-2.4h1.7c0,0.6,0.2,1,0.5,1.4c0.3,0.3,0.8,0.5,1.4,0.5c0.6,0,1-0.1,1.3-0.4C224.7,34.2,224.9,33.8,224.9,33.4z"/>
</g>
</svg>
